/* XPM */
static char *ass9m_zd110[] = {
/* columns rows colors chars-per-pixel */
"100 100 2 1 ",
"  c #107F01",
". c #2A8D29",
/* pixels */
"....................................................................................................",
"....................................................................................................",
"....................................................................................................",
"....................................................................................................",
"....................................................................................................",
"....................................................................................................",
"....................................................................................................",
"....................................................................................................",
"....................................................................................................",
"....................................................................................................",
"....................................................................................................",
"...............................................................................    .................",
"..........................................................................   ..    .................",
".............   .........................................................     .      ...............",
"............    ...   ...................................................     .       ..............",
"............     .     ..  ...............................................            ..............",
"............     .     .    ..............................................            ..............",
".............          .     ..............................................          ...............",
".............         .     ................................................        ................",
"..............             .................................................       .................",
"..............             ..................................................     ..................",
"..............            ...................................................    ...................",
"...............          .....................................................  ....................",
"...............          ...........................................................................",
"................        ............................................................................",
"................       .............................................................................",
".................      .............................................................................",
".................     ..............................................................................",
"..................   ...............................................................................",
"....................................................................................................",
"....................................................................................................",
"....................................................................................................",
"....................................................................................................",
"....................................................................................................",
"....................................................................................................",
"....................................................................................................",
"....................................................................................................",
"....................................................................................................",
"....................................................................................................",
"....................................................................................................",
"....................................................................................................",
"....................................................................................................",
"................................................  ..................................................",
"...............................................    .................................................",
"...........................................        ..    ...........................................",
"...........................................        .     ...........................................",
"...........................................              ...........................................",
"............................................            ............................................",
"............................................           .............................................",
"............................................          ..............................................",
".............................................        ...............................................",
".............................................       ................................................",
"..............................................      ................................................",
"..............................................     .................................................",
"...............................................   ..................................................",
"................................................ ...................................................",
"....................................................................................................",
"....................................................................................................",
"....................................................................................................",
"....................................................................................................",
"....................................................................................................",
"....................................................................................................",
"....................................................................................................",
"....................................................................................................",
"....................................................................................................",
"....................................................................................................",
"....................................................................................................",
"....................................................................................................",
"....................................................................................................",
"....................................................................................................",
"..............................................................................   ...................",
"...................    ..  .............................................    .     ..................",
"...................    .    ............................................    .     ..................",
"...................    .    ............................................         ...................",
"...................    .      ...........................................           ................",
"...................           ...........................................            ...............",
"...................            ..........................................            ...............",
"....................          ............................................          ................",
"....................         .............................................          ................",
"....................        ...............................................        .................",
"....................       ................................................       ..................",
".....................     ..................................................     ...................",
".....................    ...................................................    ....................",
"......................  .....................................................  .....................",
"....................................................................................................",
"....................................................................................................",
"....................................................................................................",
"....................................................................................................",
"....................................................................................................",
"....................................................................................................",
"....................................................................................................",
"....................................................................................................",
"....................................................................................................",
"....................................................................................................",
"....................................................................................................",
"....................................................................................................",
"....................................................................................................",
"....................................................................................................",
"....................................................................................................",
"...................................................................................................."
};
