/* XPM */
static char *arwda_b22el[] = {
/* columns rows colors chars-per-pixel */
"100 100 16 1 ",
"  c black",
". c #780F0F",
"X c #643B1F",
"o c #202840",
"O c #686159",
"+ c red",
"@ c #8A542E",
"# c #319B36",
"$ c #FF8000",
"% c #FFBE00",
"& c yellow",
"* c #D4AC69",
"= c #273E82",
"- c #78ACB9",
"; c #F8B9B9",
": c gray99",
/* pixels */
"####################################################################################################",
"####################################################################################################",
"####################################################################################################",
"####################################################################################################",
"##############################################+++###################################################",
"##############################################+++###################################################",
"############################################++$$$++#################################################",
"############################################++$$$++#################################################",
"##########################################++$$&&&$$++###########++##################################",
"##########################################++$$&&&$$++###########++##################################",
"##########################################++&&&&&&&++#########++$$++################################",
"########################################++$$:::::::$$++#######++$$++################################",
"########################################++$$:::::::$$++####+++$$&&$$+++#############################",
"########################################++%%:::::::%%++####+++$$&&$$+++#############################",
"####################++##################++%%:::::::%%++####+++&&&&&&+++#############################",
"####################++#############     ++%%&&:::&&%%++  ##+++&&&&&&+++#############################",
"##################++$$++###########     ++%%&&:::&&%%++  ++$$$::::::$$$++###########################",
"################++$$&&$$++#########       ++%%%%%%%++    ++$$$::::::$$$++###########################",
"################++$$&&$$++######          ++%%%%%%%++....++%%%::::::%%%++###########################",
"################++&&&&&&++######           OOOOOOOOOO....++%%%::::::%%%++###########################",
"################++&&&&&&++######           OOOOOOOOOO....++%%%&&::&&%%%++###########################",
"##############++$$::::::$$++####           OOOOOOOOOO....++%%%&&::&&%%%++###########################",
"##############++$$::::::$$++####           OOOOOOOOOO....  +++%%%%%%+++ ############################",
"############  ++%%::::::%%++       ----    OOOOOOOOOOOOOO+++++%%%%%%+++    #########################",
"############  ++%%::::::%%++       ----    OOOOOOOOOOOOOO+++++++...        ###  ####################",
"############  ++%%&&::&&%%++       ----    OOOOOOOOOOOOOO++$++++...        ###  ####################",
"##########      ++%%%%%%++      -------    +++OOOOOOO++++++$++++++++++++        ####################",
"##########      ++%%%%%%++      -------    +++OOOOOOO++++$$&$$++++++++++        ####################",
"##########        ++++++        -------    +++OOOOOOO++++$$&$$++++++++++        ####################",
"##########     ++ ++++++        -------    +++OOOOOOO++++&&&&&++++++++++        +###################",
"##########     ++ ++++++        -------    +++OOOOOOO++$$:::::$$++++++++      ##+###################",
"##########  +++$$+++++++    -------    ....++++++++++++$$:::::$$++++++++      ++$++#################",
"##########  ++$&&$++++++    -------    ....+++++++     %%:::::%%++++++++     +$$&$$+################",
"##########  ++$&&$++++++    -------    +++++$++++ XXXXX %:::::%%++++++++   oo+$$&$$+   #############",
"##########  ++&&&&++++++    -----      +++++$+++ XX***XX &&:&&%%++++++++   oo+&&&&&+   #############",
"##########  ++&&&&++++++    ---- @@@@            X*****X &&:&&%%++++++++   ++$:::::$++ #############",
"########## +$$::::$$++++    --- @@**@  @@@XXXXXXX  ****X %%%%%++++++++++   ++%:::::%++ #############",
"########## +$$::::$$++++    --- @*** @@@@@@@@XXXXXX  *XX OOOOOOO++++++++   ++%:::::%++ #############",
"######     +%%::::%%++++    === @** @@@@@@@@@@@XXXXXX XX OOOO++++++.....   ++%&&:&&%++   ###########",
"######     +%%::::%%++++    === @  @@@@@@@@@@@@@XXXXXXX OOOOO++++++.....   --+%%%%%+     ###########",
"######     +%%&::&%%++++    ==== @@@@@@@@@@@@@@@XXXXXXX OOOOO++++++.....   --+%%%%%+     ###########",
"######    ++++%%%%++O   ======== @@@@@@@@@@@@@@@@XXXXXX +++++++++++     -----------         ########",
"######    ++++%%%%++O   ========= @@@@@@@@@@@@@@@XXXXXXX ++++++++++     -----------         ########",
"######    ++OOOOOOOOO   ========= @@ @ @@@@@@@ @ @XXXXXX ++++++++++     -----------         ########",
"######    ++OOOOOOOOO   ======== @@@@ @@@@@@@@@ @@XXXXXX ++++++++++     -----------         ########",
"######    +++++++++++   ======== @@@ @ @****@@ @ XXXXXXXX ++++++...     ===--------    ++   ########",
"######    +++++++++++   ======== @@@@@***  ****@@XXXXXXXXX +++++...     ===--------    ++   ########",
"######    +++++++++++   ======== @@@@ **    *** XXXXXXXXXX +++++...     ===--------    ++   ########",
"######    +++++++++++   ======== @@@ ****  ***** XXXXXXXXXX ++++...     ===--------    ++   ########",
"######    ..+++++++++   ====    @@@@ *********** XXXXXXXXXX             ======ooooo    ++   ########",
"######    ..+++++++++   ====    @ @@@ *       * XXXXXXXXXXXX            ======ooooo    ++   ########",
"######    ..+++++++++   ====   @@ @ @@  @;;; @ XXXXXXXXXX XX            ======ooooo    ++   ########",
"######    ..+++++++++   ====     X  @@@ @;;; @ XXXX XXXXX               ======ooooo    ++   ########",
"######                           XXX@@@ @@  @@ XXXXX X XX  oo======        ===     ++++++   ########",
"######                          @XXX@@@@ @@@@ @XXXXX  X X ooo======        ===     ++++++   ########",
"######                         @@XXX@@@@@    @@@XXXXXXX  X oo======        ===     ++++++   ########",
"######    ...........                 @@@@@@@@@@XXXXX    ooooooo========           ++++..   ########",
"######    ...........                         @@XXXXX    ooooooo========           ++++..   ########",
"######    .....+.....                         @@XXXXX    ooooooo========           ++++..   ########",
"######    ....+$+....                         @@XXXXX    ooooooo=====+==           ++++..   ########",
"######      .+$&$+..............   ........                        ==+=====        ++++     ########",
"######      .+&&&+..............   ........                        ++$++===        ++++     ########",
"######      +$:::$+.............   ........   +                   +$$&$$+==        ++++     ########",
"######      +%:::%+.............   ........  +$+                  +$$&$$+==        ++++     ########",
"##########  +%&:&%+         .......    .....+$&$+.   .............+&&&&&+          ....  ###########",
"##########   +%%%+          .+.....    .....+&&&+.   ...........++$:::::$++        ....  ###########",
"##########                 ++$++...    ....+$:::$+   ...........++$:::::$++        ....  ###########",
"##########                 ++$++...    ....+%:::%+   ...........++%:::::%++        ....  ###########",
"############         oooo++$$&$$++         +%&:&%+   ...........++%&&:&&%++...           ###########",
"############         oooo++$$&$$++          +%%%+    ...........++%&&:&&%++...           ###########",
"############         oooo++&&&&&++                   ...........  +%%%%%+.....           ###########",
"##################   oo++$$:::::$$++                            oooooooo               #############",
"##################   oo++$$:::::$$++                            oooooooo               #############",
"##################   oo++%%:::::%%++                            oooooooo               #############",
"##################   oo++%%:::::%%++                            oooooooo               #############",
"##################   oo++%%&&:&&%%++                            +ooooooo               #############",
"##################     ++%%&&:&&%%++##############             +$+ooooooooo        #################",
"##################      o++%%%%%++ ###############            +$&$+oooooooo        #################",
"#####################          ############################## +&&&+ooooo        ####################",
"#####################          ##############################+$:::$+oooo        ####################",
"#############################################################+%:::%+oooo      ######################",
"#############################################################+%&:&%+oooo      ######################",
"############################################################# +%%%+ooooo      ######################",
"####################################################################################################",
"####################################################################################################",
"####################################################################################################",
"####################################################################################################",
"####################################################################################################",
"####################################################################################################",
"####################################################################################################",
"####################################################################################################",
"####################################################################################################",
"####################################################################################################",
"####################################################################################################",
"####################################################################################################",
"####################################################################################################",
"####################################################################################################",
"####################################################################################################",
"####################################################################################################",
"####################################################################################################"
};
