/* XPM */
static char *a6h7a_83ule[] = {
/* columns rows colors chars-per-pixel */
"100 100 9 1 ",
"  c #2A8D29",
". c #107F01",
"X c #2A8D28",
"o c #298D29",
"O c gray10",
"+ c #7E4223",
"@ c #298C29",
"# c #5C321C",
"$ c white",
/* pixels */
"                                                                                                    ",
"                                                                                                    ",
"                                                                                                    ",
"                                                                                                    ",
"                                                                                                    ",
"                                                                                                    ",
"                                                                                                    ",
"                                                                                                    ",
"                                                                                                    ",
"                                                                                                    ",
"                                                                                                    ",
"                 ....                                                                               ",
"                 ....  ...                                                                          ",
"               ...... .....                                                         ...             ",
"              ....... .....                                                   ...   ....            ",
"              ............                                               ..  ..... .....            ",
"              ............                                              .... .....X.....            ",
"               ..........                                              ..... ..........             ",
"                ........                                               o..... .........             ",
"                 .......     OOOOOOOOOOOOOOOO                 OOOOOOOOOOOOOOOO........              ",
"                  .....      OOOOOOOOOOOOOOOO                 OOOOOOOOOOOOOOOO........              ",
"                   ....      OOOOOOOOOOOOOOOO                 OOOOOOOOOOOOOOOO........              ",
"                    ..       OOOOOOOOOOOOOOOO                 OOOOOOOOOOOOOOOO.......               ",
"                             OOOOOOOOOOOOOOOO                 OOOOOOOOOOOOOOOO.......               ",
"                             OOOOOOOOOOOOOOOO                 OOOOOOOOOOOOOOOO......                ",
"                             OOOOO++++++OOOOOOOOOOOOOOOOOOOOOOOOOOO++++++OOOOO......                ",
"                             OOOOO++++++OOOOOOOOOOOOOOOOOOOOOOOOOOO++++++OOOOO.....                 ",
"                             OOOOO++++++OOOOOOOOOOOOOOOOOOOOOOOOOOO++++++OOOOO.....                 ",
"                             OOOOO++++++OOOOOOOOOOOOOOOOOOOOOOOOOOO++++++OOOOOX...                  ",
"                             OOOOO++++++OOOOOOOOOOOOOOOOOOOOOOOOOOO++++++OOOOO o                    ",
"                             OOOOO++++++OOOOOOOOOOOOOOOOOOOOOOOOOOO++++++OOOOO o                    ",
"                             OOOOO++++++OOOOOOOOOOOOOOOOOOOOOOOOOOO++++++OOOOO@                     ",
"                             OOOOO+++++++++++++++++++++++++++++++++++++++OOOOO                      ",
"                             OOOOO+++++++++++++++++++++++++++++++++++++++OOOOO                      ",
"                             OOOOO+++++++++++++++++++++++++++++++++++++++OOOOO                      ",
"                             OOOOO+++++++++++++++++++++++++++++++++++++++OOOOO                      ",
"                             OOOOO+++++++++++++++++++++++++++++++++++++++OOOOO                      ",
"                             OOOOO+++++++++++++++++++++++++++++++++++++++OOOOO                      ",
"                             OOOOO+++++++++++++++++OOOOO++++++OOOOO++++++OOOOOOOOOOO                ",
"                             OOOOO+++++++++++++++++OOOOO++++++OOOOO++++++OOOOOOOOOOO                ",
"                             OOOOO+++++++++++++++++OOOOO++++++OOOOO++++++OOOOOOOOOOO                ",
"                             OOOOO+++++++++++++++++OOOOO++++++OOOOO++++++OOOOOOOOOOO                ",
"                             OOOOO+++++++++++++++++OOOOO++++++OOOOO++++++OOOOOOOOOOO                ",
"                             OOOOO+++++++++++++++++OOOOO++++++OOOOO++++++OOOOOOOOOOO                ",
"                             OOOOO+++++++++++++++++++++++++++++++++++++++#####OOOOOO                ",
"                             OOOOO+++++++++++++++++++++++++++++++++++++++#####OOOOOO                ",
"                             OOOOO+++++++++++++++++++++++++++++++++++++++#####OOOOOO                ",
"                             OOOOO+++++++++++++++++++++++++++++++++++++++#####OOOOOO                ",
"                             OOOOO+++++++++++++++++++++++++++++++++++++++#####OOOOOO                ",
"                             OOOOO+++++++++++++++++++++++++++++++++++++++#####OOOOOO                ",
"                  OOOOOOOOOOOOOOOO++++++++++++++++++++++++++++++++++++++++++++OOOOOO                ",
"                  OOOOOOOOOOOOOOOO++++++++++++++++++++++++++++++++++++++++++++OOOOOO                ",
"                  OOOOOOOOOOOOOOOO++++++++++++++++++++++++++++++++++++++++++++OOOOOO                ",
"                  OOOOOOOOOOOOOOOO++++++++++++++++++++++++++++++++++++++++++++OOOOOO                ",
"                  OOOOOOOOOOOOOOOO++++++++++++++++++++++++++++++++++++++++++++OOOOOO                ",
"                  OOOOOOOOOOOOOOOO++++++++++++++++++++++++++++++++++++++++++++OOOOOO                ",
"                  OOOOO++++++OOOOO############################OOOOOOOOOOOOOOOOOOOOOO                ",
"                  OOOOO++++++OOOOO############################OOOOOOOOOOOOOOOOOOOOOO                ",
"                  OOOOO++++++OOOOO############################OOOOOOOOOOOOOOOOOOOOOO                ",
"                  OOOOO++++++OOOOO############################OOOOOOOOOOOOOOOOOOOOOO                ",
"                  OOOOO++++++OOOOO############################OOOOOOOOOOOOOOOOOOOOOO                ",
"                  OOOOO++++++OOOOO############################OOOOOOOOOOOOOOOOOOOOOO                ",
"                  OOOOO+++++++++++++++++++++++++++++++++++++++OOOOO                                 ",
"                  OOOOO+++++++++++++++++++++++++++++++++++++++OOOOO                                 ",
"                  OOOOO+++++++++++++++++++++++++++++++++++++++OOOOO                                 ",
"                  OOOOO+++++++++++++++++++++++++++++++++++++++OOOOO                                 ",
"                  OOOOO+++++++++++++++++++++++++++++++++++++++OOOOO                                 ",
"                  OOOOO+++++++++++++++++++++++++++++++++++++++OOOOO                                 ",
"                  OOOOO+++++++++++++++++++++++++++++++++++++++OOOOO                                 ",
"                  OOOOO+++++++++++++++++++++++++++++++++++++++OOOOO                                 ",
"                  OOOOO+++++++++++++++++++++++++++++++++++++++OOOOO                                 ",
"                  OOOOO+++++++++++++++++++++++++++++++++++++++OOOOO      ..  ....                   ",
"                  OOOOO+++++++++++++++++++++++++++++++++++++++OOOOO     .... ....                   ",
"                  OOOOO+++++++++++++++++++++++++++++++++++++++OOOOO     .... ....                   ",
"                ..OOOOO+++++++++++++++++++++++++++++++++++++++OOOOO   ...... ....                   ",
"               ...OOOOO+++++++++++++++++++++++++++++++++++++++OOOOO   ...........                   ",
"               ...OOOOO+++++++++++++++++++++++++++++++++++++++OOOOO  ............                   ",
"                ..OOOOO+++++++++++++++++++++++++++++++++++++++OOOOO   ..........                    ",
"                ..OOOOO+++++++++++++++++++++++++++++++++++++++OOOOO    .........                    ",
"                 .OOOOO+++++++++++++++++++++++++++++++++++++++OOOOO     ........                    ",
"                  OOOOO+++++++++++++++++++++++++++++++++++++++OOOOO      .......                    ",
"                   .....                                                  .....                     ",
"                    ....                                                   ....                     ",
"                     ..                                                     ..                      ",
"                                                                                                    ",
"                                                                                                    ",
"                                                                                                    ",
"                                                                                                    ",
"                                                                                                    ",
"                                                                                                    ",
"                                                                                                    ",
"                                                                                                    ",
"                                                                                                    ",
"                                                                                                    ",
"                                                                                                    ",
"                                                                                                    ",
"                                                                                                    ",
"                                                                                                    ",
"                                                                                                    ",
"                                                                                                    "
};
