/* XPM */
static char *allu3_e8yqq[] = {
/* columns rows colors chars-per-pixel */
"100 100 7 1 ",
"  c black",
". c #643B1F",
"X c #8A542E",
"o c #319B36",
"O c #3FC745",
"+ c #D4AC69",
"@ c #F8B9B9",
/* pixels */
"oooooooooooooooooooooooooooooooooooooooooooooooooooooooooooooooooooooooooooooooooooooooooooooooooooo",
"oooooooooooooooooooooooooooooooooooooooooooooooooooooooooooooooooooooooooooooooooooooooooooooooooooo",
"oooooooooooooooooooooooooooooooooooooooooooooooooooooooooo          oooooooooooooooooooooooooooooooo",
"oooooooooooooooooooooooooooooooooooooooooooooooooooooooooo          oooooooooooooooooooooooooooooooo",
"oooooooooooooooooooooooooooooooooooooooooooooooooooooooo  ..........  oooooooooooooooooooooooooooooo",
"oooooooooooooooooooooooooooooooooooooooooooooooooooooooo  ..........  oooooooooooooooooooooooooooooo",
"oooooooooooooooooooooooo        oooooooooooooooooooooo  ....++++++....  oooooooooooooooooooooooooooo",
"oooooooooooooooooooooooo        oooooooooooooooooooooo  ....++++++....  oooooooooooooooooooooooooooo",
"oooooooooooooooooooooo  XXXXXXXX  oo                    ..++++++++++..  oooooooooooooooooooooooooooo",
"oooooooooooooooooooooo  XXXXXXXX  oo                    ..++++++++++..  oooooooooooooooooooooooooooo",
"oooooooooooooooooooo  XXXX++++XX    XXXXXX..............    ++++++++..  oooooooooooooooooooooooooooo",
"oooooooooooooooooooo  XXXX++++XX    XXXXXX..............    ++++++++..  oooooooooooooooooooooooooooo",
"oooooooooooooooooooo  XX++++++  XXXXXXXXXXXXXXXX............    ++....  oooooooooooooooooooooooooooo",
"oooooooooooooooooooo  XX++++++  XXXXXXXXXXXXXXXX............    ++....  oooooooooooooooooooooooooooo",
"oooooooooooooooooooo  XX++++  XXXXXXXXXXXXXXXXXXXXXX............  ....  oooooooooooooooooooooooooooo",
"oooooooooooooooooooo  XX++++  XXXXXXXXXXXXXXXXXXXXXX............  ....  oooooooooooooooooooooooooooo",
"oooooooooooooooooooo  XX    XXXXXXXXXXXXXXXXXXXXXXXXXX..............  oooooooooooooooooooooooooooooo",
"oooooooooooooooooooo  XX    XXXXXXXXXXXXXXXXXXXXXXXXXX..............  oooooooooooooooooooooooooooooo",
"oooooooooooooooooooooo  XXXXXXXXXXXXXXXXXXXXXXXXXXXXXX..............  oooooooooooooooooooooooooooooo",
"oooooooooooooooooooooo  XXXXXXXXXXXXXXXXXXXXXXXXXXXXXX..............  oooooooooooooooooooooooooooooo",
"oooooooooooooooooooooo  XXXXXXXXXXXXXXXXXXXXXXXXXXXXXXXX............  oooooooooooooooooooooooooooooo",
"oooooooooooooooooooooo  XXXXXXXXXXXXXXXXXXXXXXXXXXXXXXXX............  oooooooooooooooooooooooooooooo",
"oooooooooooooooooooooooo  XXXX    XXXXXXXXXXXXXXXXXX    ..............  oooooooooooooooooooooooooooo",
"oooooooooooooooooooooooo  XXXX    XXXXXXXXXXXXXXXXXX    ..............  oooooooooooooooooooooooooooo",
"oooooooooooooooooooooOOo  XX        XXXXXXXXXXXXXX        ............  OoooooOOoooooooooooooooooooo",
"oooooooooooooooooooooOOo  XX        XXXXXXXXXXXXXX        ............  OoooooOOoooooooooooooooooooo",
"oooooooooooooooooooooO  XXXX        XXXXXXXXXXXXXX        ............  OoOOOoOOoooooooooooooooooooo",
"oooooooooooooooooooooO  XXXX        XXXXXXXXXXXXXX        ............  OoOOOoOOoooooooooooooooooooo",
"oooooooooooooooooooooO  XXXXXX    XXXX++++++++XXXXXX    ................  OOOoOOoooooooooooooooooooo",
"oooooooooooooooooooooO  XXXXXX    XXXX++++++++XXXXXX    ................  OOOoOOoooooooooooooooooooo",
"oooooooooooooooooooooo  XXXXXXXXXX++++++    ++++++++XXXX..................  oooooooooooooooooooooooo",
"oooooooooooooooooooooo  XXXXXXXXXX++++++    ++++++++XXXX..................  oooooooooooooooooooooooo",
"oooooooooooooooooooooo  XXXXXXXX  ++++        ++++++  ....................  oooooooooooooooooooooooo",
"oooooooooooooooooooooo  XXXXXXXX  ++++        ++++++  ....................  oooooooooooooooooooooooo",
"oooooooooooooooooooooo  XXXXXX  ++++++++    ++++++++++  ....................  oooooooooooooooooooooo",
"oooooooooooooooooooooo  XXXXXX  ++++++++    ++++++++++  ....................  oooooooooooooooooooooo",
"oooooooooooooooooooo  XXXXXXXX  ++++++++++++++++++++++  ....................  oooooooooooooooooooooo",
"oooooooooooooooooooo  XXXXXXXX  ++++++++++++++++++++++  ....................  oooooooooooooooooooooo",
"oooooooooooooooooooo  XX  XXXXXX  ++              ++  ........................  oooooooooooooooooooo",
"oooooooooooooooooooo  XX  XXXXXX  ++              ++  ........................  oooooooooooooooooooo",
"oooooooooooooooooo  XXXX  XX  XXXX    XX@@@@@@  XX  ....................  ....  oooooooooooooooooooo",
"oooooooooooooooooo  XXXX  XX  XXXX    XX@@@@@@  XX  ....................  ....  oooooooooooooooooooo",
"oooooooooooooooooo      ..    XXXXXX  XX@@@@@@  XX  ........  ..........        oooooooooooooooooooo",
"oooooooooooooooooo      ..    XXXXXX  XX@@@@@@  XX  ........  ..........        oooooooooooooooooooo",
"oooooooooooooooooooooo  ......XXXXXX  XXXX    XXXX  ..........  ..  ....    oooooooooooooooooooooooo",
"oooooooooooooooooooooo  ......XXXXXX  XXXX    XXXX  ..........  ..  ....    oooooooooooooooooooooooo",
"oooooooooooooooooo    XX......XXXXXXXX  XXXXXXXX  XX..........    ..  ..  oooooooooooooooooooooooooo",
"oooooooooooooooooo    XX......XXXXXXXX  XXXXXXXX  XX..........    ..  ..  oooooooooooooooooooooooooo",
"oooooooooooooooooo  XXXX......XXXXXXXXXX        XXXXXX..............    ..  oooooooooooooooooooooooo",
"oooooooooooooooooo  XXXX......XXXXXXXXXX        XXXXXX..............    ..  oooooooooooooooooooooooo",
"oooooooooooooooooo  XX........XXXXXXXXXXXXXXXXXXXXXXXXXXXX..................  oooooooooooooooooooooo",
"oooooooooooooooooo  XX........XXXXXXXXXXXXXXXXXXXXXXXXXXXX..................  oooooooooooooooooooooo",
"oooooooooooooooo  XXXX......  XXXXXXXXXXXXXXXXXXXXXXXXXXXXXX..................  oooooooooooooooooooo",
"oooooooooooooooo  XXXX......  XXXXXXXXXXXXXXXXXXXXXXXXXXXXXX..................  oooooooooooooooooooo",
"oooooooooooooooo  XXXX  ..    XXXXXXXXXXXXXXXXXXXXXXXXXXXXXX..................  oooooooooooooooooooo",
"oooooooooooooooo  XXXX  ..    XXXXXXXXXXXXXXXXXXXXXXXXXXXXXX..................  oooooooooooooooooooo",
"oooooooooooooooo  XXXXXX  oooo  XXXXXXXXXXXXXXXXXXXXXXXXXXXXXX..................  oooooooooooooooooo",
"oooooooooooooooo  XXXXXX  oooo  XXXXXXXXXXXXXXXXXXXXXXXXXXXXXX..................  oooooooooooooooooo",
"oooooooooooooooo  XXXXXXXX  oo  XXXXXXXXXXXXXXXXXXXXXXXX        ......  ........  oooooooooooooooooo",
"oooooooooooooooo  XXXXXXXX  oo  XXXXXXXXXXXXXXXXXXXXXXXX        ......  ........  oooooooooooooooooo",
"oooooooooooooooooo  ..XXXX  oo  XXXXXXXXXXXXXXXXXXXXXX  ........          ......  oooooooooooooooooo",
"oooooooooooooooooo  ..XXXX  oo  XXXXXXXXXXXXXXXXXXXXXX  ........          ......  oooooooooooooooooo",
"oooooooooooooooooo  ......  oo  XXXXXXXXXXXXXXXXXXXXXX  ........................  oooooooooooooooooo",
"oooooooooooooooooo  ......  oo  XXXXXXXXXXXXXXXXXXXXXX  ........................  oooooooooooooooooo",
"oooooooooooooooooo  ......  oooo  XXXXXXXXXXXXXXXXXXXX  ........................  oooooooooooooooooo",
"oooooooooooooooooo  ......  oooo  XXXXXXXXXXXXXXXXXXXX  ........................  oooooooooooooooooo",
"oooooooooooooooooooo      oooooo  XXXXXXXXXXXXXXXXXXXXXX  ....................  oooooooooooooooooooo",
"oooooooooooooooooooo      oooooo  XXXXXXXXXXXXXXXXXXXXXX  ....................  oooooooooooooooooooo",
"oooooooooooooooooooooooooooooo  XXXXXXXXXXXXXXXXXXXXXXXX..    ..............  oooooooooooooooooooooo",
"oooooooooooooooooooooooooooooo  XXXXXXXXXXXXXXXXXXXXXXXX..    ..............  oooooooooooooooooooooo",
"oooooooooooooooooooooooooooooo  XXXXXXXXXXXXXXXXXXXX..........    ........  oooooooooooooooooooooooo",
"oooooooooooooooooooooooooooooo  XXXXXXXXXXXXXXXXXXXX..........    ........  oooooooooooooooooooooooo",
"oooooooooooooooooooooooooooo  XXXXXXXXXX..........................          oooooooooooooooooooooooo",
"oooooooooooooooooooooooooooo  XXXXXXXXXX..........................          oooooooooooooooooooooooo",
"oooooooooooooooooooooOOooooo  XXXXXXXXXX..................................  ooOOoooooooooooooooooooo",
"oooooooooooooooooooooOOooooo  XXXXXXXXXX..................................  ooOOoooooooooooooooooooo",
"oooooooooooooooooooooOOoOOOo  ................  ............  ..............  OOoooooooooooooooooooo",
"oooooooooooooooooooooOOoOOOo  ................  ............  ..............  OOoooooooooooooooooooo",
"oooooooooooooooooooooOOoOOOo  ..............  oo            oo  ............  OOoooooooooooooooooooo",
"oooooooooooooooooooooOOoOOOo  ..............  oo            oo  ............  OOoooooooooooooooooooo",
"oooooooooooooooooooooooooooooo  ..........  oooooooooooooooooo  ............  oooooooooooooooooooooo",
"oooooooooooooooooooooooooooooo  ..........  oooooooooooooooooo  ............  oooooooooooooooooooooo",
"oooooooooooooooooooooooooooooooo  ......  oooooooooooooooooooooo  ..........  oooooooooooooooooooooo",
"oooooooooooooooooooooooooooooooo  ......  oooooooooooooooooooooo  ..........  oooooooooooooooooooooo",
"oooooooooooooooooooooooooooooooo  ......  oooooooooooooooooooooooo    ........  oooooooooooooooooooo",
"oooooooooooooooooooooooooooooooo  ......  oooooooooooooooooooooooo    ........  oooooooooooooooooooo",
"oooooooooooooooooooooooooooooo  ..........  oooooooooooooooooooooooo  ........  oooooooooooooooooooo",
"oooooooooooooooooooooooooooooo  ..........  oooooooooooooooooooooooo  ........  oooooooooooooooooooo",
"oooooooooooooooooooooooooooo  ............  oooooooooooooooooooooooo  ........  oooooooooooooooooooo",
"oooooooooooooooooooooooooooo  ............  oooooooooooooooooooooooo  ........  oooooooooooooooooooo",
"oooooooooooooooooooooooooo  ..............  oooooooooooooooooooooooooo  ......  oooooooooooooooooooo",
"oooooooooooooooooooooooooo  ..............  oooooooooooooooooooooooooo  ......  oooooooooooooooooooo",
"oooooooooooooooooooooooo  ..............  oooooooooooooooooooooooooooo  ......  oooooooooooooooooooo",
"oooooooooooooooooooooooo  ..............  oooooooooooooooooooooooooooo  ......  oooooooooooooooooooo",
"oooooooooooooooooooooooo  ............  oooooooooooooooooooooooooooooooo      oooooooooooooooooooooo",
"oooooooooooooooooooooooo  ............  oooooooooooooooooooooooooooooooo      oooooooooooooooooooooo",
"oooooooooooooooooooooooooo  ........  oooooooooooooooooooooooooooooooooooooooooooooooooooooooooooooo",
"oooooooooooooooooooooooooo  ........  oooooooooooooooooooooooooooooooooooooooooooooooooooooooooooooo",
"oooooooooooooooooooooooooooo        oooooooooooooooooooooooooooooooooooooooooooooooooooooooooooooooo",
"oooooooooooooooooooooooooooo        oooooooooooooooooooooooooooooooooooooooooooooooooooooooooooooooo"
};
