/* XPM */
static char *a8xjh_lgjqe[] = {
/* columns rows colors chars-per-pixel */
"100 100 5 1 ",
"  c gray10",
". c #5C321C",
"X c #107F01",
"o c #7E4223",
"O c #2A8D29",
/* pixels */
"OOOOOOOOOOOOOOOOOOOOOOOOOOOOOOOOOOOOOOOOOOOOOOOOOOOOOOOOOOOOOOOOOOOOOOOOOOOOOOOOOOOOOOOOOOOOOOOOOOOO",
"OOOOOOOOOOOOOOOOOOOOOOOOOOOOOOOOOOOOOOOOOOOOOOOOOOOOOOOOOOOOOOOOOOOOOOOOOOOOOOOOOOOOOOOOOOOOOOOOOOOO",
"OOOOOOOOOOOOOOOOOOOOOOOOOOOOOOOOOOOOOOOOOOOOOOOOOOOOOOOOOOOOOOOOOOOOOOOOOOOOOOOOOOOOOOOOOOOOOOOOOOOO",
"OOOOOOOOOOOOOOOOOOOOOOOOOOOOOOOOOOOOOOOOOOOOOOOOOOOOOOOOOOOOOOOOOOOOOOOOOOOOOOOOOOOOOOOOOOOOOOOOOOOO",
"OOOOOOOOOOOOOOOOOOOOOOOOOOOOOOOOOOOOOOOOOOOOOOOOOOOOOOOOOOOOOOOOOOOOOOOOOOOOOOOOOOOOOOOOOOOOOOOOOOOO",
"OOOOOOOOOOOOOOOOOOOOOOOOOOOOOOOOOOOOOOOOOOOOOOOOOOOOOOOOOOOOOOOOOOOOOOOOOOOOOOOOOOOOOOOOOOOOOOOOOOOO",
"OOOOOOOOOOOOOOOOOOOOOOOOOOOOOOOOOOOOOOOOOOOOOOOOOOOOOOOOOOOOOOOOOOOOOOOOOOOOOOOOOOOOOOOOOOOOOOOOOOOO",
"OOOOOOOOOOOOOOOOOOOOOOOOOOOOOOOOOOOOOOOOOOOOOOOOOOOOOOOOOOOOOOOOOOOOOOOOOOOOOOOOOOOOOOOOOOOOOOOOOOOO",
"OOOOOOOOOOOOOOOOOOOOOOOOOOOOOOOOOOOOOOOOOOOOOOOOOOOOOOOOOOOOOOOOOOOOOOOOOOOOOOOOOOOOOOOOOOOOOOOOOOOO",
"OOOOOOOOOOOOOOOOOOOOOOOOOOOOOOOOOOOOOOOOOOOOOOOOOOOOOOOOOOOOOOOOOOOOOOOOOOOOOOOOOOOOOOOOOOOOOOOOOOOO",
"OOOOOOOOOOOOOOOOOOOOOOOOOOOOOOOOOOOOOOOOOOOOOOOOOOOOOOOOOOOOOOOOOOOOOOOOOOOOOOOOOOOOOOOOOOOOOOOOOOOO",
"OOOOOOOOOOOOOOOOOOOOOOOOOOOOOOOOOOOOOOOOOOOOOOOOOOOOOOOOOOOOOOOOOOOOOOOOOOOOOOOXXXXOOOOOOOOOOOOOOOOO",
"OOOOOOOOOOOOOOOOOOOOOOOOOOOOOOOOOOOOOOOOOOOOOOOOOOOOOOOOOOOOOOOOOOOOOOOOOOXXXOOXXXXOOOOOOOOOOOOOOOOO",
"OOOOOOOOOOOOOXXXOOOOOOOOOOOOOOOOOOOOOOOOOOOOOOOOOOOOOOOOOOOOOOOOOOOOOOOOOXXXXXOXXXXXXOOOOOOOOOOOOOOO",
"OOOOOOOOOOOOXXXXOOOXXXOOOOOOOOOOOOOOOOOOOOOOOOOOOOOOOOOOOOOOOOOOOOOOOOOOOXXXXXOXXXXXXXOOOOOOOOOOOOOO",
"OOOOOOOOOOOOXXXXXOXXXXXOOXXOOOOOOOOOOOOOOOOOOOOOOOOOOOOOOOOOOOOOOOOOOOOOOOXXXXXXXXXXXXOOOOOOOOOOOOOO",
"OOOOOOOOOOOOXXXXXOXXXXXOXXXXOOOOOOOOOOOOOOOOOOOOOOOOOOOOOOOOOOOOOOOOOOOOOOXXXXXXXXXXXXOOOOOOOOOOOOOO",
"OOOOOOOOOOOOOXXXXXXXXXXOXXXXXOOOOOOOOOOOOOOOOOOOOOOOOOOOOOOOOOOOOOOOOOOOOOOXXXXXXXXXXOOOOOOOOOOOOOOO",
"OOOOOOOOOOOOOXXXXXXXXXOXXXXXOOOOOOOOOOOOOOOOOOOOOOOOOOOOOOOOOOOOOOOOOOOOOOOOXXXXXXXXOOOOOOOOOOOOOOOO",
"OOOOOOOOOOOOOOXXXXXXXX                OOOOOOOOOOOOOOOOO                OOOOOXXXXXXXOOOOOOOOOOOOOOOOO",
"OOOOOOOOOOOOOOXXXXXXXX                OOOOOOOOOOOOOOOOO                OOOOOOXXXXXOOOOOOOOOOOOOOOOOO",
"OOOOOOOOOOOOOOXXXXXXXX                OOOOOOOOOOOOOOOOO                OOOOOOXXXXOOOOOOOOOOOOOOOOOOO",
"OOOOOOOOOOOOOOOXXXXXXX                OOOOOOOOOOOOOOOOO                OOOOOOOXXOOOOOOOOOOOOOOOOOOOO",
"OOOOOOOOOOOOOOOXXXXXXX                OOOOOOOOOOOOOOOOO                OOOOOOOOOOOOOOOOOOOOOOOOOOOOO",
"OOOOOOOOOOOOOOOOXXXXXX                OOOOOOOOOOOOOOOOO                OOOOOOOOOOOOOOOOOOOOOOOOOOOOO",
"OOOOOOOOOOOOOOOOXXXXXX     oooooo                           oooooo     OOOOOOOOOOOOOOOOOOOOOOOOOOOOO",
"OOOOOOOOOOOOOOOOOXXXXX     oooooo                           oooooo     OOOOOOOOOOOOOOOOOOOOOOOOOOOOO",
"OOOOOOOOOOOOOOOOOXXXXX     oooooo                           oooooo     OOOOOOOOOOOOOOOOOOOOOOOOOOOOO",
"OOOOOOOOOOOOOOOOOOXXXO     oooooo                           oooooo     OOOOOOOOOOOOOOOOOOOOOOOOOOOOO",
"OOOOOOOOOOOOOOOOOOOOOO     oooooo                           oooooo     OOOOOOOOOOOOOOOOOOOOOOOOOOOOO",
"OOOOOOOOOOOOOOOOOOOOOO     oooooo                           oooooo     OOOOOOOOOOOOOOOOOOOOOOOOOOOOO",
"OOOOOOOOOOOOOOOOOOOOOO     oooooo                           oooooo     OOOOOOOOOOOOOOOOOOOOOOOOOOOOO",
"OOOOOOOOOOOOOOOOOOOOOO     ooooooooooooooooooooooooooooooooooooooo     OOOOOOOOOOOOOOOOOOOOOOOOOOOOO",
"OOOOOOOOOOOOOOOOOOOOOO     ooooooooooooooooooooooooooooooooooooooo     OOOOOOOOOOOOOOOOOOOOOOOOOOOOO",
"OOOOOOOOOOOOOOOOOOOOOO     ooooooooooooooooooooooooooooooooooooooo     OOOOOOOOOOOOOOOOOOOOOOOOOOOOO",
"OOOOOOOOOOOOOOOOOOOOOO     ooooooooooooooooooooooooooooooooooooooo     OOOOOOOOOOOOOOOOOOOOOOOOOOOOO",
"OOOOOOOOOOOOOOOOOOOOOO     ooooooooooooooooooooooooooooooooooooooo     OOOOOOOOOOOOOOOOOOOOOOOOOOOOO",
"OOOOOOOOOOOOOOOOOOOOOO     ooooooooooooooooooooooooooooooooooooooo     OOOOOOOOOOOOOOOOOOOOOOOOOOOOO",
"OOOOOOOOOOOOOOOO           oooooo     oooooo     ooooooooooooooooo     OOOOOOOOOOOOOOOOOOOOOOOOOOOOO",
"OOOOOOOOOOOOOOOO           oooooo     oooooo     ooooooooooooooooo     OOOOOOOOOOOOOOOOOOOOOOOOOOOOO",
"OOOOOOOOOOOOOOOO           oooooo     oooooo     ooooooooooooooooo     OOOOOOOOOOOOOOOOOOOOOOOOOOOOO",
"OOOOOOOOOOOOOOOO           oooooo     oooooo     ooooooooooooooooo     OOOOOOOOOOOOOOOOOOOOOOOOOOOOO",
"OOOOOOOOOOOOOOOO           oooooo     oooooo     ooooooooooooooooo     OOOOOOOOOOOOOOOOOOOOOOOOOOOOO",
"OOOOOOOOOOOOOOOO           oooooo     oooooo     ooooooooooooooooo     OOOOOOOOOOOOOOOOOOOOOOOOOOOOO",
"OOOOOOOOOOOOOOOO      .....ooooooooooooooooooooooooooooooooooooooo     OOOOOOOOOOOOOOOOOOOOOOOOOOOOO",
"OOOOOOOOOOOOOOOO      .....ooooooooooooooooooooooooooooooooooooooo     OOOOOOOOOOOOOOOOOOOOOOOOOOOOO",
"OOOOOOOOOOOOOOOO      .....ooooooooooooooooooooooooooooooooooooooo     OOOOOOOOOOOOOOOOOOOOOOOOOOOOO",
"OOOOOOOOOOOOOOOO      .....ooooooooooooooooooooooooooooooooooooooo     OOOOOOOOOOOOOOOOOOOOOOOOOOOOO",
"OOOOOOOOOOOOOOOO      .....ooooooooooooooooooooooooooooooooooooooo     OOOOOOOOOOOOOOOOOOOOOOOOOOOOO",
"OOOOOOOOOOOOOOOO      .....ooooooooooooooooooooooooooooooooooooooo     OOOOOOOOOOOOOOOOOOOOOOOOOOOOO",
"OOOOOOOOOOOOOOOO      oooooooooooooooooooooooooooooooooooooooooooo                OOOOOOOOOOOOOOOOOO",
"OOOOOOOOOOOOOOOO      oooooooooooooooooooooooooooooooooooooooooooo                OOOOOOOOOOOOOOOOOO",
"OOOOOOOOOOOOOOOO      oooooooooooooooooooooooooooooooooooooooooooo                OOOOOOOOOOOOOOOOOO",
"OOOOOOOOOOOOOOOO      oooooooooooooooooooooooooooooooooooooooooooo                OOOOOOOOOOOOOOOOOO",
"OOOOOOOOOOOOOOOO      oooooooooooooooooooooooooooooooooooooooooooo                OOOOOOOOOOOOOOOOOO",
"OOOOOOOOOOOOOOOO      oooooooooooooooooooooooooooooooooooooooooooo                OOOOOOOOOOOOOOOOOO",
"OOOOOOOOOOOOOOOO                      ............................     oooooo     OOOOOOOOOOOOOOOOOO",
"OOOOOOOOOOOOOOOO                      ............................     oooooo     OOOOOOOOOOOOOOOOOO",
"OOOOOOOOOOOOOOOO                      ............................     oooooo     OOOOOOOOOOOOOOOOOO",
"OOOOOOOOOOOOOOOO                      ............................     oooooo     OOOOOOOOOOOOOOOOOO",
"OOOOOOOOOOOOOOOO                      ............................     oooooo     OOOOOOOOOOOOOOOOOO",
"OOOOOOOOOOOOOOOO                      ............................     oooooo     OOOOOOOOOOOOOOOOOO",
"OOOOOOOOOOOOOOOOOOOOOOOOOOOOOOOOO     ooooooooooooooooooooooooooooooooooooooo     OOOOOOOOOOOOOOOOOO",
"OOOOOOOOOOOOOOOOOOOOOOOOOOOOOOOOO     ooooooooooooooooooooooooooooooooooooooo     OOOOOOOOOOOOOOOOOO",
"OOOOOOOOOOOOOOOOOOOOOOOOOOOOOOOOO     ooooooooooooooooooooooooooooooooooooooo     OOOOOOOOOOOOOOOOOO",
"OOOOOOOOOOOOOOOOOOOOOOOOOOOOOOOOO     ooooooooooooooooooooooooooooooooooooooo     OOOOOOOOOOOOOOOOOO",
"OOOOOOOOOOOOOOOOOOOOOOOOOOOOOOOOO     ooooooooooooooooooooooooooooooooooooooo     OOOOOOOOOOOOOOOOOO",
"OOOOOOOOOOOOOOOOOOOOOOOOOOOOOOOOO     ooooooooooooooooooooooooooooooooooooooo     OOOOOOOOOOOOOOOOOO",
"OOOOOOOOOOOOOOOOOOOOOOOOOOOOOOOOO     ooooooooooooooooooooooooooooooooooooooo     OOOOOOOOOOOOOOOOOO",
"OOOOOOOOOOOOOOOOOOOOOOOOOOOOOOOOO     ooooooooooooooooooooooooooooooooooooooo     OOOOOOOOOOOOOOOOOO",
"OOOOOOOOOOOOOOOOOOOOOOOOOOOOOOOOO     ooooooooooooooooooooooooooooooooooooooo     OOOOOOOOOOOOOOOOOO",
"OOOOOOOOOOOOOOOOOOOXXXXOOXXOOOOOO     ooooooooooooooooooooooooooooooooooooooo     OOOOOOOOOOOOOOOOOO",
"OOOOOOOOOOOOOOOOOOOXXXXOXXXXOOOOO     ooooooooooooooooooooooooooooooooooooooo     OOOOOOOOOOOOOOOOOO",
"OOOOOOOOOOOOOOOOOOOXXXXOXXXXOOOOO     ooooooooooooooooooooooooooooooooooooooo     OOOOOOOOOOOOOOOOOO",
"OOOOOOOOOOOOOOOOOOOXXXXOXXXXXXOOO     ooooooooooooooooooooooooooooooooooooooo     XXOOOOOOOOOOOOOOOO",
"OOOOOOOOOOOOOOOOOOOXXXXXXXXXXXOOO     ooooooooooooooooooooooooooooooooooooooo     XXXOOOOOOOOOOOOOOO",
"OOOOOOOOOOOOOOOOOOOXXXXXXXXXXXXOO     ooooooooooooooooooooooooooooooooooooooo     XXXOOOOOOOOOOOOOOO",
"OOOOOOOOOOOOOOOOOOOOXXXXXXXXXXOOO     ooooooooooooooooooooooooooooooooooooooo     XXOOOOOOOOOOOOOOOO",
"OOOOOOOOOOOOOOOOOOOOXXXXXXXXXOOOO     ooooooooooooooooooooooooooooooooooooooo     XXOOOOOOOOOOOOOOOO",
"OOOOOOOOOOOOOOOOOOOOXXXXXXXXOOOOO     ooooooooooooooooooooooooooooooooooooooo     XOOOOOOOOOOOOOOOOO",
"OOOOOOOOOOOOOOOOOOOOXXXXXXXOOOOOO     ooooooooooooooooooooooooooooooooooooooo     OOOOOOOOOOOOOOOOOO",
"OOOOOOOOOOOOOOOOOOOOOXXXXXOOOOOOOOOOOOOOOOOOOOOOOOOOOOOOOOOOOOOOOOOOOOOOOOOOXXXXXOOOOOOOOOOOOOOOOOOO",
"OOOOOOOOOOOOOOOOOOOOOXXXXOOOOOOOOOOOOOOOOOOOOOOOOOOOOOOOOOOOOOOOOOOOOOOOOOOOXXXXOOOOOOOOOOOOOOOOOOOO",
"OOOOOOOOOOOOOOOOOOOOOOXXOOOOOOOOOOOOOOOOOOOOOOOOOOOOOOOOOOOOOOOOOOOOOOOOOOOOOXXOOOOOOOOOOOOOOOOOOOOO",
"OOOOOOOOOOOOOOOOOOOOOOOOOOOOOOOOOOOOOOOOOOOOOOOOOOOOOOOOOOOOOOOOOOOOOOOOOOOOOOOOOOOOOOOOOOOOOOOOOOOO",
"OOOOOOOOOOOOOOOOOOOOOOOOOOOOOOOOOOOOOOOOOOOOOOOOOOOOOOOOOOOOOOOOOOOOOOOOOOOOOOOOOOOOOOOOOOOOOOOOOOOO",
"OOOOOOOOOOOOOOOOOOOOOOOOOOOOOOOOOOOOOOOOOOOOOOOOOOOOOOOOOOOOOOOOOOOOOOOOOOOOOOOOOOOOOOOOOOOOOOOOOOOO",
"OOOOOOOOOOOOOOOOOOOOOOOOOOOOOOOOOOOOOOOOOOOOOOOOOOOOOOOOOOOOOOOOOOOOOOOOOOOOOOOOOOOOOOOOOOOOOOOOOOOO",
"OOOOOOOOOOOOOOOOOOOOOOOOOOOOOOOOOOOOOOOOOOOOOOOOOOOOOOOOOOOOOOOOOOOOOOOOOOOOOOOOOOOOOOOOOOOOOOOOOOOO",
"OOOOOOOOOOOOOOOOOOOOOOOOOOOOOOOOOOOOOOOOOOOOOOOOOOOOOOOOOOOOOOOOOOOOOOOOOOOOOOOOOOOOOOOOOOOOOOOOOOOO",
"OOOOOOOOOOOOOOOOOOOOOOOOOOOOOOOOOOOOOOOOOOOOOOOOOOOOOOOOOOOOOOOOOOOOOOOOOOOOOOOOOOOOOOOOOOOOOOOOOOOO",
"OOOOOOOOOOOOOOOOOOOOOOOOOOOOOOOOOOOOOOOOOOOOOOOOOOOOOOOOOOOOOOOOOOOOOOOOOOOOOOOOOOOOOOOOOOOOOOOOOOOO",
"OOOOOOOOOOOOOOOOOOOOOOOOOOOOOOOOOOOOOOOOOOOOOOOOOOOOOOOOOOOOOOOOOOOOOOOOOOOOOOOOOOOOOOOOOOOOOOOOOOOO",
"OOOOOOOOOOOOOOOOOOOOOOOOOOOOOOOOOOOOOOOOOOOOOOOOOOOOOOOOOOOOOOOOOOOOOOOOOOOOOOOOOOOOOOOOOOOOOOOOOOOO",
"OOOOOOOOOOOOOOOOOOOOOOOOOOOOOOOOOOOOOOOOOOOOOOOOOOOOOOOOOOOOOOOOOOOOOOOOOOOOOOOOOOOOOOOOOOOOOOOOOOOO",
"OOOOOOOOOOOOOOOOOOOOOOOOOOOOOOOOOOOOOOOOOOOOOOOOOOOOOOOOOOOOOOOOOOOOOOOOOOOOOOOOOOOOOOOOOOOOOOOOOOOO",
"OOOOOOOOOOOOOOOOOOOOOOOOOOOOOOOOOOOOOOOOOOOOOOOOOOOOOOOOOOOOOOOOOOOOOOOOOOOOOOOOOOOOOOOOOOOOOOOOOOOO",
"OOOOOOOOOOOOOOOOOOOOOOOOOOOOOOOOOOOOOOOOOOOOOOOOOOOOOOOOOOOOOOOOOOOOOOOOOOOOOOOOOOOOOOOOOOOOOOOOOOOO",
"OOOOOOOOOOOOOOOOOOOOOOOOOOOOOOOOOOOOOOOOOOOOOOOOOOOOOOOOOOOOOOOOOOOOOOOOOOOOOOOOOOOOOOOOOOOOOOOOOOOO",
"OOOOOOOOOOOOOOOOOOOOOOOOOOOOOOOOOOOOOOOOOOOOOOOOOOOOOOOOOOOOOOOOOOOOOOOOOOOOOOOOOOOOOOOOOOOOOOOOOOOO"
};
