/* XPM */
static char *a2ht5_aweyy[] = {
/* columns rows colors chars-per-pixel */
"100 100 7 1 ",
"  c black",
". c #643B1F",
"X c #8A542E",
"o c #319B36",
"O c #3FC745",
"+ c #D4AC69",
"@ c #F8B9B9",
/* pixels */
"oooooooooooooooooooooooooooooooo          oooooooooooooooooooooooooooooooooooooooooooooooooooooooooo",
"oooooooooooooooooooooooooooooooo          oooooooooooooooooooooooooooooooooooooooooooooooooooooooooo",
"oooooooooooooooooooooooooooooo  ..........  oooooooooooooooooooooooooooooooooooooooooooooooooooooooo",
"oooooooooooooooooooooooooooooo  ..........  oooooooooooooooooooooooooooooooooooooooooooooooooooooooo",
"oooooooooooooooooooooooooooo  ....++++++....  oooooooooooooooooooooo        oooooooooooooooooooooooo",
"oooooooooooooooooooooooooooo  ....++++++....  oooooooooooooooooooooo        oooooooooooooooooooooooo",
"oooooooooooooooooooooooooooo  ..++++++++++..                    oo  XXXXXXXX  oooooooooooooooooooooo",
"oooooooooooooooooooooooooooo  ..++++++++++..                    oo  XXXXXXXX  oooooooooooooooooooooo",
"oooooooooooooooooooooooooooo  ..++++++++    ..............XXXXXX    XX++++XXXX  oooooooooooooooooooo",
"oooooooooooooooooooooooooooo  ..++++++++    ..............XXXXXX    XX++++XXXX  oooooooooooooooooooo",
"oooooooooooooooooooooooooooo  ....++    ............XXXXXXXXXXXXXXXX  ++++++XX  oooooooooooooooooooo",
"oooooooooooooooooooooooooooo  ....++    ............XXXXXXXXXXXXXXXX  ++++++XX  oooooooooooooooooooo",
"oooooooooooooooooooooooooooo  ....  ............XXXXXXXXXXXXXXXXXXXXXX  ++++XX  oooooooooooooooooooo",
"oooooooooooooooooooooooooooo  ....  ............XXXXXXXXXXXXXXXXXXXXXX  ++++XX  oooooooooooooooooooo",
"oooooooooooooooooooooooooooooo  ..............XXXXXXXXXXXXXXXXXXXXXXXXXX    XX  oooooooooooooooooooo",
"oooooooooooooooooooooooooooooo  ..............XXXXXXXXXXXXXXXXXXXXXXXXXX    XX  oooooooooooooooooooo",
"oooooooooooooooooooooooooooooo  ..............XXXXXXXXXXXXXXXXXXXXXXXXXXXXXX  oooooooooooooooooooooo",
"oooooooooooooooooooooooooooooo  ..............XXXXXXXXXXXXXXXXXXXXXXXXXXXXXX  oooooooooooooooooooooo",
"oooooooooooooooooooooooooooooo  ............XXXXXXXXXXXXXXXXXXXXXXXXXXXXXXXX  oooooooooooooooooooooo",
"oooooooooooooooooooooooooooooo  ............XXXXXXXXXXXXXXXXXXXXXXXXXXXXXXXX  oooooooooooooooooooooo",
"oooooooooooooooooooooooooooo  ..............    XXXXXXXXXXXXXXXXXX    XXXX  oooooooooooooooooooooooo",
"oooooooooooooooooooooooooooo  ..............    XXXXXXXXXXXXXXXXXX    XXXX  oooooooooooooooooooooooo",
"oooooooooooooooooooooooooooo  ............        XXXXXXXXXXXXXX        XX  oooooooooooooooooooooooo",
"oooooooooooooooooooooooooooo  ............        XXXXXXXXXXXXXX        XX  oooooooooooooooooooooooo",
"oooooooooooooooooooooOOooooo  ............        XXXXXXXXXXXXXX        XXXX  OOoooooooooooooooooooo",
"oooooooooooooooooooooOOooooo  ............        XXXXXXXXXXXXXX        XXXX  OOoooooooooooooooooooo",
"oooooooooooooooooooooOOoOO  ................    XXXXXX++++++++XXXX    XXXXXX  OOoooooooooooooooooooo",
"oooooooooooooooooooooOOoOO  ................    XXXXXX++++++++XXXX    XXXXXX  OOoooooooooooooooooooo",
"oooooooooooooooooooooOOo  ..................XXXX++++++++    ++++++XXXXXXXXXX  OOoooooooooooooooooooo",
"oooooooooooooooooooooOOo  ..................XXXX++++++++    ++++++XXXXXXXXXX  OOoooooooooooooooooooo",
"oooooooooooooooooooooooo  ....................  ++++++        ++++  XXXXXXXX  oooooooooooooooooooooo",
"oooooooooooooooooooooooo  ....................  ++++++        ++++  XXXXXXXX  oooooooooooooooooooooo",
"oooooooooooooooooooooo  ....................  ++++++++++    ++++++++  XXXXXX  oooooooooooooooooooooo",
"oooooooooooooooooooooo  ....................  ++++++++++    ++++++++  XXXXXX  oooooooooooooooooooooo",
"oooooooooooooooooooooo  ....................  ++++++++++++++++++++++  XXXXXXXX  oooooooooooooooooooo",
"oooooooooooooooooooooo  ....................  ++++++++++++++++++++++  XXXXXXXX  oooooooooooooooooooo",
"oooooooooooooooooooo  ........................  ++              ++  XXXXXX  XX  oooooooooooooooooooo",
"oooooooooooooooooooo  ........................  ++              ++  XXXXXX  XX  oooooooooooooooooooo",
"oooooooooooooooooooo  ....  ....................  XX  @@@@@@XX    XXXX  XX  XXXX  oooooooooooooooooo",
"oooooooooooooooooooo  ....  ....................  XX  @@@@@@XX    XXXX  XX  XXXX  oooooooooooooooooo",
"oooooooooooooooooooo        ..........  ........  XX  @@@@@@XX  XXXXXX    ..      oooooooooooooooooo",
"oooooooooooooooooooo        ..........  ........  XX  @@@@@@XX  XXXXXX    ..      oooooooooooooooooo",
"oooooooooooooooooooooooo    ....  ..  ..........  XXXX    XXXX  XXXXXX......  oooooooooooooooooooooo",
"oooooooooooooooooooooooo    ....  ..  ..........  XXXX    XXXX  XXXXXX......  oooooooooooooooooooooo",
"oooooooooooooooooooooooooo  ..  ..    ..........XX  XXXXXXXX  XXXXXXXX......XX    oooooooooooooooooo",
"oooooooooooooooooooooooooo  ..  ..    ..........XX  XXXXXXXX  XXXXXXXX......XX    oooooooooooooooooo",
"oooooooooooooooooooooooo  ..    ..............XXXXXX        XXXXXXXXXX......XXXX  oooooooooooooooooo",
"oooooooooooooooooooooooo  ..    ..............XXXXXX        XXXXXXXXXX......XXXX  oooooooooooooooooo",
"oooooooooooooooooooooo  ..................XXXXXXXXXXXXXXXXXXXXXXXXXXXX........XX  oooooooooooooooooo",
"oooooooooooooooooooooo  ..................XXXXXXXXXXXXXXXXXXXXXXXXXXXX........XX  oooooooooooooooooo",
"oooooooooooooooooooo  ..................XXXXXXXXXXXXXXXXXXXXXXXXXXXXXX  ......XXXX  oooooooooooooooo",
"oooooooooooooooooooo  ..................XXXXXXXXXXXXXXXXXXXXXXXXXXXXXX  ......XXXX  oooooooooooooooo",
"oooooooooooooooooooo  ..................XXXXXXXXXXXXXXXXXXXXXXXXXXXXXX    ..  XXXX  oooooooooooooooo",
"oooooooooooooooooooo  ..................XXXXXXXXXXXXXXXXXXXXXXXXXXXXXX    ..  XXXX  oooooooooooooooo",
"oooooooooooooooooo  ..................XXXXXXXXXXXXXXXXXXXXXXXXXXXXXX  oooo  XXXXXX  oooooooooooooooo",
"oooooooooooooooooo  ..................XXXXXXXXXXXXXXXXXXXXXXXXXXXXXX  oooo  XXXXXX  oooooooooooooooo",
"oooooooooooooooooo  ........  ......        XXXXXXXXXXXXXXXXXXXXXXXX  oo  XXXXXXXX  oooooooooooooooo",
"oooooooooooooooooo  ........  ......        XXXXXXXXXXXXXXXXXXXXXXXX  oo  XXXXXXXX  oooooooooooooooo",
"oooooooooooooooooo  ......          ........  XXXXXXXXXXXXXXXXXXXXXX  oo  XXXX..  oooooooooooooooooo",
"oooooooooooooooooo  ......          ........  XXXXXXXXXXXXXXXXXXXXXX  oo  XXXX..  oooooooooooooooooo",
"oooooooooooooooooo  ........................  XXXXXXXXXXXXXXXXXXXXXX  oo  ......  oooooooooooooooooo",
"oooooooooooooooooo  ........................  XXXXXXXXXXXXXXXXXXXXXX  oo  ......  oooooooooooooooooo",
"oooooooooooooooooo  ........................  XXXXXXXXXXXXXXXXXXXX  oooo  ......  oooooooooooooooooo",
"oooooooooooooooooo  ........................  XXXXXXXXXXXXXXXXXXXX  oooo  ......  oooooooooooooooooo",
"oooooooooooooooooooo  ....................  XXXXXXXXXXXXXXXXXXXXXX  oooooo      oooooooooooooooooooo",
"oooooooooooooooooooo  ....................  XXXXXXXXXXXXXXXXXXXXXX  oooooo      oooooooooooooooooooo",
"oooooooooooooooooooooo  ..............    ..XXXXXXXXXXXXXXXXXXXXXXXX  oooooooooooooooooooooooooooooo",
"oooooooooooooooooooooo  ..............    ..XXXXXXXXXXXXXXXXXXXXXXXX  oooooooooooooooooooooooooooooo",
"oooooooooooooooooooooooo  ........    ..........XXXXXXXXXXXXXXXXXXXX  oooooooooooooooooooooooooooooo",
"oooooooooooooooooooooooo  ........    ..........XXXXXXXXXXXXXXXXXXXX  oooooooooooooooooooooooooooooo",
"oooooooooooooooooooooooo          ..........................XXXXXXXXXX  oooooooooooooooooooooooooooo",
"oooooooooooooooooooooooo          ..........................XXXXXXXXXX  oooooooooooooooooooooooooooo",
"oooooooooooooooooooooooo  ..................................XXXXXXXXXX  oooooooooooooooooooooooooooo",
"oooooooooooooooooooooooo  ..................................XXXXXXXXXX  oooooooooooooooooooooooooooo",
"oooooooooooooooooooooO  ......................................XXXX....  OoooooOOoooooooooooooooooooo",
"oooooooooooooooooooooO  ......................................XXXX....  OoooooOOoooooooooooooooooooo",
"oooooooooooooooooooooO  ..............  ............  ................  OoOOOoOOoooooooooooooooooooo",
"oooooooooooooooooooooO  ..............  ............  ................  OoOOOoOOoooooooooooooooooooo",
"oooooooooooooooooooooO  ............  oo            oo  ..............  OoOOOoOOoooooooooooooooooooo",
"oooooooooooooooooooooO  ............  oo            oo  ..............  OoOOOoOOoooooooooooooooooooo",
"oooooooooooooooooooooo  ............  oooooooooooooooooo  ..........  oooooooooooooooooooooooooooooo",
"oooooooooooooooooooooo  ............  oooooooooooooooooo  ..........  oooooooooooooooooooooooooooooo",
"oooooooooooooooooooooo  ..........  oooooooooooooooooooooo  ......  oooooooooooooooooooooooooooooooo",
"oooooooooooooooooooooo  ..........  oooooooooooooooooooooo  ......  oooooooooooooooooooooooooooooooo",
"oooooooooooooooooooo  ........    oooooooooooooooooooooooo  ......  oooooooooooooooooooooooooooooooo",
"oooooooooooooooooooo  ........    oooooooooooooooooooooooo  ......  oooooooooooooooooooooooooooooooo",
"oooooooooooooooooooo  ........  oooooooooooooooooooooooo  ..........  oooooooooooooooooooooooooooooo",
"oooooooooooooooooooo  ........  oooooooooooooooooooooooo  ..........  oooooooooooooooooooooooooooooo",
"oooooooooooooooooooo  ........  oooooooooooooooooooooooo  ............  oooooooooooooooooooooooooooo",
"oooooooooooooooooooo  ........  oooooooooooooooooooooooo  ............  oooooooooooooooooooooooooooo",
"oooooooooooooooooooo  ......  oooooooooooooooooooooooooo  ..............  oooooooooooooooooooooooooo",
"oooooooooooooooooooo  ......  oooooooooooooooooooooooooo  ..............  oooooooooooooooooooooooooo",
"oooooooooooooooooooo  ......  oooooooooooooooooooooooooooo  ..............  oooooooooooooooooooooooo",
"oooooooooooooooooooo  ......  oooooooooooooooooooooooooooo  ..............  oooooooooooooooooooooooo",
"oooooooooooooooooooooo      oooooooooooooooooooooooooooooooo  ............  oooooooooooooooooooooooo",
"oooooooooooooooooooooo      oooooooooooooooooooooooooooooooo  ............  oooooooooooooooooooooooo",
"oooooooooooooooooooooooooooooooooooooooooooooooooooooooooooooo  ........  oooooooooooooooooooooooooo",
"oooooooooooooooooooooooooooooooooooooooooooooooooooooooooooooo  ........  oooooooooooooooooooooooooo",
"oooooooooooooooooooooooooooooooooooooooooooooooooooooooooooooooo        oooooooooooooooooooooooooooo",
"oooooooooooooooooooooooooooooooooooooooooooooooooooooooooooooooo        oooooooooooooooooooooooooooo"
};
