/* XPM */
static char *awvmo_muvzv[] = {
/* columns rows colors chars-per-pixel */
"100 100 8 1 ",
"  c black",
". c #780F0F",
"X c #202840",
"o c red",
"O c #319B36",
"+ c #3FC745",
"@ c #273E82",
"# c #78ACB9",
/* pixels */
"OOOOOOOOOOOOOOOOOOOOOOOOOOOOOOOOOOOOOOOOOOOOOOOOOOOOOOOOOOOOOOOOOOOOOOOOOOOOOOOOOOOOOOOOOOOOOOOOOOOO",
"OOOOOOOOOOOOOOOOOOOOOOOOOOOOOOOOOOOOOOOOOOOOOOOOOOOOOOOOOOOOOOOOOOOOOOOOOOOOOOOOOOOOOOOOOOOOOOOOOOOO",
"OOOOOOOOOOOOOOOOOOOOOOOOOOOOOOOOOOOOOOOOOOOOOOOOOOOOOOOOOOOOOOOOOOOOOOOOOOOOOOOOOOOOOOOOOOOOOOOOOOOO",
"OOOOOOOOOOOOOOOOOOOOOOOOOOOOOOOOOOOOOOOOOOOOOOOOOOOOOOOOOOOOOOOOOOOOOOOOOOOOOOOOOOOOOOOOOOOOOOOOOOOO",
"OOOOOOOOOOOOOOOOOOOOOOOOOOOOOOOOOOOOOOOOOOOOOOOOOOOOOOOOOOOOOOOOOOOOOOOOOOOOOOOOOOOOOOOOOOOOOOOOOOOO",
"OOOOOOOOOOOOOOOOOOOOOOOOOOOOOOOOOOOOOOOOOOOOOOOOOOOOOOOOOOOOOOOOOOOOOOOOOOOOOOOOOOOOOOOOOOOOOOOOOOOO",
"OOOOOOOOOOOOOOOOOOOOOOOOOOOOOOOOOOOOOOOOOOOOOOOOOOOOOOOOOOOOOOOOOOOOOOOOOOOOOOOOOOOOOOOOOOOOOOOOOOOO",
"OOOOOOOOOOOOOOOOOOOOOOOOOOOOOOOOOOOOOOOOOOOOOOOOOOOOOOOOOOOOOOOOOOOOOOOOOOOOOOOOOOOOOOOOOOOOOOOOOOOO",
"OOOOOOOOOOOOOOOOOOOOOOOOOOOOOOOOOOOOOOOOOOOOOOOOOOOOOOOOOOOOOOOOOOOOOOOOOOOOOOOOOOOOOOOOOOOOOOOOOOOO",
"OOOOOOOOOOOOOOOOOOOOOOOOOOOOOOOOOOOOOOOOOOOOOOOOOOOOOOOOOOOOOOOOOOOOOOOOOOOOOOOOOOOOOOOOOOOOOOOOOOOO",
"OOOOOOOOOOOOOOOOOOOOOOOOOOOOOOOOOOOOOOOOOOOOOOOOOOOOOOOOOOOOOOOOOOOOOOOOOOOOOOOOOOOOOOOOOOOOOOOOOOOO",
"OOOOOOOOOOOOOOOOOOOOOOOOOOOOOOOOOOOOOOOOOOOOOOOOOOOOOOOOOOOOOOOOOOOOOOOOOOOOOOOOOOOOOOOOOOOOOOOOOOOO",
"OOOOOOOOOOOOOOOOOOOOOOOOOOOOOOOOOOOOOOOOOOOOOOOOOOOOOOOOOOOOOOOOOOOOOOOOOOOOOOOOOOOOOOOOOOOOOOOOOOOO",
"OOOOOOOOOOOOOOOOOOOOOOOOOOOOOOOOOOOOOOOOOOOOOOOOOOOOOOOOOOOOOOOOOOOOOOOOOOOOOOOOOOOOOOOOOOOOOOOOOOOO",
"OOOOOOOOOOOOOOOOOOOOOOOOOOOOOOOOOOOOOOOOOOOOOOOOOOOOOOOOOOOOOOOOOOOOOOOOOOOOOOOOOOOOOOOOOOOOOOOOOOOO",
"OOOOOOOOOOOOOOOOOOOOOOOOOOOOOOOOOOO                      OOOOOOOOOOOOOOOOOOOOOOOOOOOOOOOOOOOOOOOOOOO",
"OOOOOOOOOOOOOOOOOOOOOOOOOOOOOOOOOOO                      OOOOOOOOOOOOOOOOOOOOOOOOOOOOOOOOOOOOOOOOOOO",
"OOOOOOOOOOOOOOOOOOOOOOOOOOOOOOOOOOO                      OOOOOOOOOOOOOOOOOOOOOOOOOOOOOOOOOOOOOOOOOOO",
"OOOOOOOOOOOOOOOOOOOOOOOOOOOOOOOO           oooooooooo....               OOOOOOOOOOOOOOOOOOOOOOOOOOOO",
"OOOOOOOOOOOOOOOOOOOOOOOOOOOOOOOO           oooooooooo....               OOOOOOOOOOOOOOOOOOOOOOOOOOOO",
"OOOOOOOOOOOOOOOOOOOOOOOOOOOOOOOO           oooooooooo....               OOOOOOOOOOOOOOOOOOOOOOOOOOOO",
"OOOOOOOOOOOOOOOOOOOOOOOOOOOOOOOO           oooooooooo....               OOOOOOOOOOOOOOOOOOOOOOOOOOOO",
"OOOOOOOOOOOOOOOOOOOOOOOOOOOOOOOO           oooooooooo....               OOOOOOOOOOOOOOOOOOOOOOOOOOOO",
"OOOOOOOOOOOO                       ####    ooooooooooooooooooooo...        OOOOOOOOOOOOOOOOOOOOOOOOO",
"OOOOOOOOOOOO                       ####    ooooooooooooooooooooo...        OOO++OOOOOOOOOOOOOOOOOOOO",
"OOOOOOOOOOOO                       ####    ooooooooooooooooooooo...        OOO++OOOOOOOOOOOOOOOOOOOO",
"OOOOOOOOOO        oooooo        #######    ooooooooooooooooooooooooooooo      ++OOOOOOOOOOOOOOOOOOOO",
"OOOOOOOOOO        oooooo        #######    ooooooooooooooooooooooooooooo      ++OOOOOOOOOOOOOOOOOOOO",
"OOOOOOOOOO        oooooo        #######    ooooooooooooooooooooooooooooo      ++OOOOOOOOOOOOOOOOOOOO",
"OOOOOOOOOO        oooooo        #######    ooooooooooooooooooooooooooooo      ++OOOOOOOOOOOOOOOOOOOO",
"OOOOOOOOOO        oooooo        #######    ooooooooooooooooooooooooooooo      OOOOOOOOOOOOOOOOOOOOOO",
"OOOOOOOOOO  oooooooooooo    #######    ....ooooooooooooooooooooooooooooo           OOOOOOOOOOOOOOOOO",
"OOOOOOOOOO  oooooooooooo    #######    ....ooooooooooooooooooooooooooooo           OOOOOOOOOOOOOOOOO",
"OOOOOOOOOO  oooooooooooo    #######    ooooooooooooooooooooooooooooooooo   XXX         OOOOOOOOOOOOO",
"OOOOOOOOOO  oooooooooooo    #######    ooooooooooooooooooooooooooooooooo   XXX         OOOOOOOOOOOOO",
"OOOOOOOOOO  oooooooooooo    #######    ooooooooooooooooooooooooooooooooo   XXX         OOOOOOOOOOOOO",
"OOOOOOOOOO  oooooooooooo    #######    ooooooooooooooooooooooooooooooooo   XXX         OOOOOOOOOOOOO",
"OOOOOOOOOO  oooooooooooo    #######    ooooooooooooooooooooooooooooooooo   XXX         OOOOOOOOOOOOO",
"OOOOOO      oooooooooooo    @@@@###    oooooooooooooooooooooooooooo.....   ###XXXXX      OOOOOOOOOOO",
"OOOOOO      oooooooooooo    @@@@###    oooooooooooooooooooooooooooo.....   ###XXXXX      OOOOOOOOOOO",
"OOOOOO      oooooooooooo    @@@@###    oooooooooooooooooooooooooooo.....   ###XXXXX      OOOOOOOOOOO",
"OOOOOO    ooooooooooo   @@@@@@@@@@@    ....oooooooooooooooooooooooo     ###########         OOOOOOOO",
"OOOOOO    ooooooooooo   @@@@@@@@@@@    ....oooooooooooooooooooooooo     ###########         OOOOOOOO",
"OOOOOO    ooooooooooo   @@@@@@@@@@@    ....oooooooooooooooooooooooo     ###########         OOOOOOOO",
"OOOOOO    ooooooooooo   @@@@@@@@@@@    ....oooooooooooooooooooooooo     ###########         OOOOOOOO",
"OOOOOO    ooooooooooo   @@@@@@@@                  ...ooooooooooo...     @@@########    oo   OOOOOOOO",
"OOOOOO    ooooooooooo   @@@@@@@@                  ...ooooooooooo...     @@@########    oo   OOOOOOOO",
"OOOOOO    ooooooooooo   @@@@@@@@                  ...ooooooooooo...     @@@########    oo   OOOOOOOO",
"OOOOOO    ooooooooooo   @@@@@@@@                  ...ooooooooooo...     @@@########    oo   OOOOOOOO",
"OOOOOO    ..ooooooooo   @@@@       @@@@@@@@XXXXXXX                      @@@@@@XXXXX    oo   OOOOOOOO",
"OOOOOO    ..ooooooooo   @@@@       @@@@@@@@XXXXXXX                      @@@@@@XXXXX    oo   OOOOOOOO",
"OOOOOO    ..ooooooooo   @@@@       @@@@@@@@XXXXXXX                      @@@@@@XXXXX    oo   OOOOOOOO",
"OOOOOO    ..ooooooooo   @@@@       @@@@@@@@XXXXXXX                      @@@@@@XXXXX    oo   OOOOOOOO",
"OOOOOO                          @@@@@@@@@@@@@@XXXXXXX    XXXX@@@@@@        @@@     oooooo   OOOOOOOO",
"OOOOOO                          @@@@@@@@@@@@@@XXXXXXX    XXXX@@@@@@        @@@     oooooo   OOOOOOOO",
"OOOOOO                          @@@@@@@@@@@@@@XXXXXXX    XXXX@@@@@@        @@@     oooooo   OOOOOOOO",
"OOOOOO    ...........                         XXXXXXX    XXXXXXX@@@@@@@@           oooo..   OOOOOOOO",
"OOOOOO    ...........                         XXXXXXX    XXXXXXX@@@@@@@@           oooo..   OOOOOOOO",
"OOOOOO    ...........                         XXXXXXX    XXXXXXX@@@@@@@@           oooo..   OOOOOOOO",
"OOOOOO    ...........                         XXXXXXX    XXXXXXX@@@@@@@@           oooo..   OOOOOOOO",
"OOOOOO      ....................   ........                        @@@@@@@@        oooo     OOOOOOOO",
"OOOOOO      ....................   ........                        @@@@@@@@        oooo     OOOOOOOO",
"OOOOOO      ....................   ........                        @@@@@@@@        oooo     OOOOOOOO",
"OOOOOO      ....................   ........                        @@@@@@@@        oooo     OOOOOOOO",
"OOOOOOOOOO                  .......    ...........   ..............                ....  OOOOOOOOOOO",
"OOOOOOOOOO                  .......    ...........   ..............                ....  OOOOOOOOOOO",
"OOOOOOOOOO                  .......    ...........   ..............                ....  OOOOOOOOOOO",
"OOOOOOOOOO                  .......    ...........   ..............                ....  OOOOOOOOOOO",
"OOOOOOOOOOOO         XXXXXXX                         ...........        ......           OOOOOOOOOOO",
"OOOOOOOOOOOO         XXXXXXX                         ...........        ......           OOOOOOOOOOO",
"OOOOOOOOOOOO         XXXXXXX                         ...........        ......           OOOOOOOOOOO",
"OOOOOOOOOOOOOOOOOO   XXXXXXXXXXX                                XXXXXXXX               OOOOOOOOOOOOO",
"OOOOOOOOOOOOOOOOOO   XXXXXXXXXXX                                XXXXXXXX               OOOOOOOOOOOOO",
"OOOOOOOOOOOOOOOOOO   XXXXXXXXXXX                                XXXXXXXX               OOOOOOOOOOOOO",
"OOOOOOOOOOOOOOOOOO   XXXXXXXXXXX                                XXXXXXXX               OOOOOOOOOOOOO",
"OOOOOOOOOOOOOOOOOO   XXXXXXXXXXX                                XXXXXXXX               OOOOOOOOOOOOO",
"OOOOOOOOOOOOOOOOOO      XXXX       OOOOOOOOOOOOOOO              XXXXXXXXXXX        OOOOOOOOOOOOOOOOO",
"OOOOOOOOOOOOOOOOOO      XXXX       OOOOOOOOOOOOOOO              XXXXXXXXXXX        OOOOOOOOOOOOOOOOO",
"OOOOOOOOOOOOOOOOOOOOO++O+++O++OOOOOOOOOOOOOOOOOOOOOOOOOOOOOOO      XXXXX      ++OOOOOOOOOOOOOOOOOOOO",
"OOOOOOOOOOOOOOOOOOOOO++O+++O++OOOOOOOOOOOOOOOOOOOOOOOOOOOOOOO      XXXXX      ++OOOOOOOOOOOOOOOOOOOO",
"OOOOOOOOOOOOOOOOOOOOOOOOOOOOOOOOOOOOOOOOOOOOOOOOOOOOOOOOOOOOO      XXXXX      OOOOOOOOOOOOOOOOOOOOOO",
"OOOOOOOOOOOOOOOOOOOOOOOOOOOOOOOOOOOOOOOOOOOOOOOOOOOOOOOOOOOOO      XXXXX      OOOOOOOOOOOOOOOOOOOOOO",
"OOOOOOOOOOOOOOOOOOOOOOOOOOOOOOOOOOOOOOOOOOOOOOOOOOOOOOOOOOOOO      XXXXX      OOOOOOOOOOOOOOOOOOOOOO",
"OOOOOOOOOOOOOOOOOOOOOOOOOOOOOOOOOOOOOOOOOOOOOOOOOOOOOOOOOOOOOOOOOOOOOOOOOOOOOOOOOOOOOOOOOOOOOOOOOOOO",
"OOOOOOOOOOOOOOOOOOOOOOOOOOOOOOOOOOOOOOOOOOOOOOOOOOOOOOOOOOOOOOOOOOOOOOOOOOOOOOOOOOOOOOOOOOOOOOOOOOOO",
"OOOOOOOOOOOOOOOOOOOOOOOOOOOOOOOOOOOOOOOOOOOOOOOOOOOOOOOOOOOOOOOOOOOOOOOOOOOOOOOOOOOOOOOOOOOOOOOOOOOO",
"OOOOOOOOOOOOOOOOOOOOOOOOOOOOOOOOOOOOOOOOOOOOOOOOOOOOOOOOOOOOOOOOOOOOOOOOOOOOOOOOOOOOOOOOOOOOOOOOOOOO",
"OOOOOOOOOOOOOOOOOOOOOOOOOOOOOOOOOOOOOOOOOOOOOOOOOOOOOOOOOOOOOOOOOOOOOOOOOOOOOOOOOOOOOOOOOOOOOOOOOOOO",
"OOOOOOOOOOOOOOOOOOOOOOOOOOOOOOOOOOOOOOOOOOOOOOOOOOOOOOOOOOOOOOOOOOOOOOOOOOOOOOOOOOOOOOOOOOOOOOOOOOOO",
"OOOOOOOOOOOOOOOOOOOOOOOOOOOOOOOOOOOOOOOOOOOOOOOOOOOOOOOOOOOOOOOOOOOOOOOOOOOOOOOOOOOOOOOOOOOOOOOOOOOO",
"OOOOOOOOOOOOOOOOOOOOOOOOOOOOOOOOOOOOOOOOOOOOOOOOOOOOOOOOOOOOOOOOOOOOOOOOOOOOOOOOOOOOOOOOOOOOOOOOOOOO",
"OOOOOOOOOOOOOOOOOOOOOOOOOOOOOOOOOOOOOOOOOOOOOOOOOOOOOOOOOOOOOOOOOOOOOOOOOOOOOOOOOOOOOOOOOOOOOOOOOOOO",
"OOOOOOOOOOOOOOOOOOOOOOOOOOOOOOOOOOOOOOOOOOOOOOOOOOOOOOOOOOOOOOOOOOOOOOOOOOOOOOOOOOOOOOOOOOOOOOOOOOOO",
"OOOOOOOOOOOOOOOOOOOOOOOOOOOOOOOOOOOOOOOOOOOOOOOOOOOOOOOOOOOOOOOOOOOOOOOOOOOOOOOOOOOOOOOOOOOOOOOOOOOO",
"OOOOOOOOOOOOOOOOOOOOOOOOOOOOOOOOOOOOOOOOOOOOOOOOOOOOOOOOOOOOOOOOOOOOOOOOOOOOOOOOOOOOOOOOOOOOOOOOOOOO",
"OOOOOOOOOOOOOOOOOOOOOOOOOOOOOOOOOOOOOOOOOOOOOOOOOOOOOOOOOOOOOOOOOOOOOOOOOOOOOOOOOOOOOOOOOOOOOOOOOOOO",
"OOOOOOOOOOOOOOOOOOOOOOOOOOOOOOOOOOOOOOOOOOOOOOOOOOOOOOOOOOOOOOOOOOOOOOOOOOOOOOOOOOOOOOOOOOOOOOOOOOOO",
"OOOOOOOOOOOOOOOOOOOOOOOOOOOOOOOOOOOOOOOOOOOOOOOOOOOOOOOOOOOOOOOOOOOOOOOOOOOOOOOOOOOOOOOOOOOOOOOOOOOO",
"OOOOOOOOOOOOOOOOOOOOOOOOOOOOOOOOOOOOOOOOOOOOOOOOOOOOOOOOOOOOOOOOOOOOOOOOOOOOOOOOOOOOOOOOOOOOOOOOOOOO",
"OOOOOOOOOOOOOOOOOOOOOOOOOOOOOOOOOOOOOOOOOOOOOOOOOOOOOOOOOOOOOOOOOOOOOOOOOOOOOOOOOOOOOOOOOOOOOOOOOOOO"
};
