/* XPM */
static char *ari8d_udkwo[] = {
/* columns rows colors chars-per-pixel */
"100 100 12 1 ",
"  c black",
". c #123812",
"X c #1B3D1F",
"o c #181D31",
"O c #63050E",
"+ c #107F01",
"@ c #1D2C6F",
"# c #554E47",
"$ c #FB0007",
"% c #2A8D29",
"& c #669CAB",
"* c white",
/* pixels */
"%%%%%%%%%%%%%%%%%%%%%%%%%%%%%%%%%%%%%%%%%%%%%%%%%%%%%%%%%%%%%%%%%%%%%%%%%%%%%%%%%%%%%%%%%%%%%%%%%%%%",
"%%%%%%%%%%%%%%%%%%%%%%%%%%%%%%%%%%%%%%%%%%%%%%%%%%%%%%%%%%%%%%%%%%%%%%%%%%%%%%%%%%%%%%%%%%%%%%%%%%%%",
"%%%%%%%%%%%%%%%%%%%%%%%%%%%%%%%%%%%%%%%%%%%%%%%%%%%%%%%%%%%%%%%%%%%%%%%%%%%%%%%%%%%%%%%%%%%%%%%%%%%%",
"%%%%%%%%%%%%%%%%%%%%%%%%%%%%%%%%%%%%%%%%%%%%%%%%%%%%%%%%%%%%%%%%%%%%%%%%%%%%%%%%%%%%%%%%%%%%%%%%%%%%",
"%%%%%%%%%%%%%%%%%%%%%%%%%%%%%%%%%%%%%%%%%%%%%%%%%%%%%%%%%%%%%%%%%%%%%%%%%%%%%%%%%%%%%%%%%%%%%%%%%%%%",
"%%%%%%%%%%%%%%%%%%%%%%%%%%%%%%%%%%%%%%%%%%%%%%%%%%%%%%%%%%%%%%%%%%%%%%%%%%%%%%%%%%%%%%%%%%%%%%%%%%%%",
"%%%%%%%%%%%%%%%%%%%%%%%%%%%%%%%%%%%%%%%%%%%%%%%%%%%%%%%%%%%%%%%%%%%%%%%%%%%%%%%%%%%%%%%%%%%%%%%%%%%%",
"%%%%%%%%%%%%%%%%%%%%%%%%%%%%%%%%%%%%%%%%%%%%%%%%%%%%%%%%%%%%%%%%%%%%%%%%%%%%%%%%%%%%%%%%%%%%%%%%%%%%",
"%%%%%%%%%%%%%%%%%%%%%%%%%%%%%%%%%%%%%%%%%%%%%%%%%%%%%%%%%%%%%%%%%%%%%%%%%%%%%%%%%%%%%%%%%%%%%%%%%%%%",
"%%%%%%%%%%%%%%%%%%%%%%%%%%%%%%%%%%%%%%%%%%%%%%%%%%%%%%%%%%%%%%%%%%%%%%%%%%%%%%%%%%%%%%%%%%%%%%%%%%%%",
"%%%%%%%%%%%%%%%%%%%%%%%%%%%%%%%%%%%%%%%%%%%%%%%%%%%%%%%%%%%%%%%%%%%%%%%%%%%%%%%%%%%%%%%%%%%%%%%%%%%%",
"%%%%%%%%%%%%%%%%%%%%%%%%%%%%%%%%%%%%%%%%%%%%%%%%%%%%%%%%%%%%%%%%%%%%%%%%%%%%%%%++++%%%%%%%%%%%%%%%%%",
"%%%%%%%%%%%%%%%%%%%%%%%%%%%%%%%%%%%%%%%%%%%%%%%%%%%%%%%%%%%%%%%%%%%%%%%%%%+++%%++++%%%%%%%%%%%%%%%%%",
"%%%%%%%%%%%%%+++%%%%%%%%%%%%%%%%%%%%%%%%%%%%%%%%%%%%%%%%%%%%%%%%%%%%%%%%%+++++%++++++%%%%%%%%%%%%%%%",
"%%%%%%%%%%%%++++%%%+++%%%%%%%%%%%%%                       %%%%%%%%%%%%%%%+++++%+++++++%%%%%%%%%%%%%%",
"%%%%%%%%%%%%+++++%+++++%%++%%%%%%%%                       %%%%%%%%%%%%%%%%++++++++++++%%%%%%%%%%%%%%",
"%%%%%%%%%%%%+++++%+++++%++++%%%%%%%                       %%%%%%%%%%%%%%%%++++++++++++%%%%%%%%%%%%%%",
"%%%%%%%%%%%%%++++++++++%+++++%%%%%%                       %%%%%%%%%%%%%%%%%++++++++++%%%%%%%%%%%%%%%",
"%%%%%%%%%%%%%+++++++++%+++++%%%           ############OOOO               %%%++++++++%%%%%%%%%%%%%%%%",
"%%%%%%%%%%%%%%+++++++++++++%%%%           ############OOOO               %%%+++++++%%%%%%%%%%%%%%%%%",
"%%%%%%%%%%%%%%+++++++++++++%%%%           ############OOOO               %%%%+++++%%%%%%%%%%%%%%%%%%",
"%%%%%%%%%%%%%%++++++++++++%%%%%           ############OOOO               %%%%++++%%%%%%%%%%%%%%%%%%%",
"%%%%%%%%%%%                        &&&    ################$$$$$$$$OOO        %++%%%%%%%%%%%%%%%%%%%%",
"%%%%%%%%%%%                        &&&    ################$$$$$$$$OOO        %%%%%%%%%%%%%%%%%%%%%%%",
"%%%%%%%%%%%                        &&&    ################$$$$$$$$OOO        %%%%%%%%%%%%%%%%%%%%%%%",
"%%%%%%%%%%%                        &&&    ################$$$$$$$$OOO        %%%%%%%%%%%%%%%%%%%%%%%",
"%%%%%%%%       $$$$$$$$        *******    $$$$########$$$$$$$$$$$$$$$$$$$        %%%%%%%%%%%%%%%%%%%",
"%%%%%%%%       $$$$$$$$        *******    $$$$########$$$$$$$$$$$$$$$$$$$        %%%%%%%%%%%%%%%%%%%",
"%%%%%%%%       $$$$$$$$        *******    $$$$########$$$$$$$$$$$$$$$$$$$        %%%%%%%%%%%%%%%%%%%",
"%%%%%%%%   $$$$$$$$$$$$    &&&&****   OOOO$$$$$$$$$$$$$$$$####$$$$$$$$$$$            %%%%%%%%%%%%%%%",
"%%%%%%%%   $$$$$$$$$$$$    &&&&****   OOOO$$$$$$$$$$$$$$$$####$$$$$$$$$$$            %%%%%%%%%%%%%%%",
"%%%%%%%%   $$$$$$$$$$$$    &&&&****   OOOO$$$$$$$$$$$$$$$$####$$$$$$$$$$$            %%%%%%%%%%%%%%%",
"%%%%%%%%   $$$$$$$$$$$$    &&&&****   OOOO$$$$$$$$$$$$$$$$####$$$$$$$$$$$            %%%%%%%%%%%%%%%",
"%%%%%%%%   $$$$$$$$$$$$    &&&&&&&&   $$$$$$$$$$$$$$$$############$$$$$$$    oooo        %%%%%%%%%%%",
"%%%%%%%%   $$$$$$$$$$$$    &&&&&&&&   $$$$$$$$$$$$$$$$############$$$$$$$    oooo        %%%%%%%%%%%",
"%%%%%%%%   $$$$$$$$$$$$    &&&&&&&&   $$$$$$$$$$$$$$$$############$$$$$$$    oooo        %%%%%%%%%%%",
"%%%%%%%%   $$$$$$$$$$$$    &&&&&&&&   $$$$$$$$$$$$$$$$############$$$$$$$    oooo        %%%%%%%%%%%",
"%%%%       ########$$$$    @@@@&&&&   $$$$$$$$$$$$$$$$########$$$$$$$OOOO    ****oooo        %%%%%%%",
"%%%%       ########$$$$    @@@@&&&&   $$$$$$$$$$$$$$$$########$$$$$$$OOOO    ****oooo        %%%%%%%",
"%%%%       ########$$$$    @@@@&&&&   $$$$$$$$$$$$$$$$########$$$$$$$OOOO    ****oooo        %%%%%%%",
"%%%%    $$$########    @@@@@@@@@@@@   OOOO$$$$$$$$$$$$$$$$$$$$$$$$$$$    &&&&&&&&&&&&           %%%%",
"%%%%    $$$########    @@@@@@@@@@@@   OOOO$$$$$$$$$$$$$$$$$$$$$$$$$$$    &&&&&&&&&&&&           %%%%",
"%%%%    $$$########    @@@@@@@@@@@@   OOOO$$$$$$$$$$$$$$$$$$$$$$$$$$$    &&&&&&&&&&&&           %%%%",
"%%%%    $$$########    @@@@@@@@@@@@   OOOO$$$$$$$$$$$$$$$$$$$$$$$$$$$    &&&&&&&&&&&&           %%%%",
"%%%%    $$$$$$$$$$$    @@@@@@@@                   OOOO$$$$$$$$$$$$OOO    @@@@&&&&&&&&    $$$$   %%%%",
"%%%%    $$$$$$$$$$$    @@@@@@@@                   OOOO$$$$$$$$$$$$OOO    @@@@&&&&&&&&    $$$$   %%%%",
"%%%%    $$$$$$$$$$$    @@@@@@@@                   OOOO$$$$$$$$$$$$OOO    @@@@&&&&&&&&    $$$$   %%%%",
"%%%%    $$$$$$$$$$$    @@@@@@@@                   OOOO$$$$$$$$$$$$OOO    @@@@&&&&&&&&    $$$$   %%%%",
"XXXX    OOO$$$$$$$$    @@@@        @@@@@@@oooooooo                       @@@@@@@@oooo    $$$$   %%%%",
"XXXX    OOO$$$$$$$$    @@@@        @@@@@@@oooooooo                       @@@@@@@@oooo    $$$$   %%%%",
"XXXX    OOO$$$$$$$$    @@@@        @@@@@@@oooooooo                       @@@@@@@@oooo    $$$$   %%%%",
"XXXX    OOO$$$$$$$$    @@@@        @@@@@@@oooooooo                       @@@@@@@@oooo    $$$$   %%%%",
"XXXX                           @@@@@@@@@@@@@@@oooooooo    oooo@@@@@@@        @@@@    $$$$$$$$   %%%%",
"XXXX                           @@@@@@@@@@@@@@@oooooooo    oooo@@@@@@@        @@@@    $$$$$$$$   %%%%",
"XXXX                           @@@@@@@@@@@@@@@oooooooo    oooo@@@@@@@        @@@@    $$$$$$$$   %%%%",
"XXXX    OOOOOOOOOOO                           oooooooo    oooooooo@@@@@@@            $$$$OOOO   XXXX",
"XXXX    OOOOOOOOOOO                           oooooooo    oooooooo@@@@@@@            $$$$OOOO   XXXX",
"XXXX    OOOOOOOOOOO                           oooooooo    oooooooo@@@@@@@            $$$$OOOO   XXXX",
"XXXX    OOOOOOOOOOO                           oooooooo    oooooooo@@@@@@@            $$$$OOOO   XXXX",
"XXXX       OOOOOOOOOOOOOOOOOOOO    OOOOOOO                           @@@@@@@@        $$$$       XXXX",
"XXXX       OOOOOOOOOOOOOOOOOOOO    OOOOOOO                           @@@@@@@@        $$$$       XXXX",
"XXXX       OOOOOOOOOOOOOOOOOOOO    OOOOOOO                           @@@@@@@@        $$$$       XXXX",
"XXXX       OOOOOOOOOOOOOOOOOOOO    OOOOOOO                           @@@@@@@@        $$$$       XXXX",
"XXXXXXXX                   OOOOOOOO   OOOOOOOOOOOO    OOOOOOOOOOOOOOO                OOOO    XXXXXXX",
"XXXXXXXX                   OOOOOOOO   OOOOOOOOOOOO    OOOOOOOOOOOOOOO                OOOO    XXXXXXX",
"XXXXXXXX                   OOOOOOOO   OOOOOOOOOOOO    OOOOOOOOOOOOOOO                OOOO    XXXXXXX",
"XXXXXXXXXXX        oooooooo                           OOOOOOOOOOOO       OOOOOOOO            XXX%%%%",
"XXXXXXXXXXX        oooooooo                           OOOOOOOOOOOO       OOOOOOOO            XXX%%%%",
"XXXXXXXXXXX        oooooooo                           OOOOOOOOOOOO       OOOOOOOO            XXX%%%%",
"XXXXXXXXXXX        oooooooo                           OOOOOOOOOOOO       OOOOOOOO            XXX%%%%",
"%%%%XXXXXXXXXXX    oooooooooooo                                   ooooooo                XXXXXXX%%%%",
"%%%%XXXXXXXXXXX    oooooooooooo                                   ooooooo                XXXXXXX%%%%",
"%%%%XXXXXXXXXXX    oooooooooooo                                   ooooooo                XXXXXXX%%%%",
"%%%%XXXXXXXXXXX    oooooooooooo                                   ooooooo                XXXXXXX%%%%",
"%%%%%%%%XXXXXXX        oooo        XXXXXXXXXXXXXXX                ooooooooooo        XXXXXXXX%%%%%%%",
"%%%%%%%%XXXXXXX        oooo        XXXXXXXXXXXXXXX                ooooooooooo        XXXXXXXX%%%%%%%",
"%%%%%%%%XXXXXXX        oooo        XXXXXXXXXXXXXXX                ooooooooooo        XXXXXXXX%%%%%%%",
"%%%%%%%%%%%XXXXXXXXX..........XXXXXXXXXXXXXXXXXXXXXXXXXXXXXXXX       oooo        ...XXXXXXXXX%%%%%%%",
"%%%%%%%%%%%XXXXXXXXX.........XXXXXXXXXXXXXXXXXXXXXXXXXXXXXXXXX       oooo        ...XXXXXXXXX%%%%%%%",
"%%%%%%%%%%%XXXXXXXXX........XXXXXXXXXXXXXXXXXXXXXXXXXXXXXXXXXX       oooo        ..XXXXXXXXXX%%%%%%%",
"%%%%%%%%%%%XXXXXXXXX.......XXXXXXXXXXXXXXXXXXXXXXXXXXXXXXXXXXX       oooo        .XXXXXXXXXXX%%%%%%%",
"%%%%%%%%%%%%%%%%%%%%%+++++%%%%%%%%%XXXXXXXXXXXXXXXXXXXXXXXXXXXXXXXXXXXXXXXXX.....XXXXXXXX%%%%%%%%%%%",
"%%%%%%%%%%%%%%%%%%%%%++++%%%%%%%%%%XXXXXXXXXXXXXXXXXXXXXXXXXXXXXXXXXXXXXXXXX....XXXXXXXXX%%%%%%%%%%%",
"%%%%%%%%%%%%%%%%%%%%%%++%%%%%%%%%%%XXXXXXXXXXXXXXXXXXXXXXXXXXXXXXXXXXXXXXXXXX..XXXXXXXXXX%%%%%%%%%%%",
"%%%%%%%%%%%%%%%%%%%%%%%%%%%%%%%%%%%XXXXXXXXXXXXXXXXXXXXXXXXXXXXXXXXXXXXXXXXXXXXXXXXXXXXXX%%%%%%%%%%%",
"%%%%%%%%%%%%%%%%%%%%%%%%%%%%%%%%%%%%%%%%%%%%%%%%%%%%%%%%%%%%%%XXXXXXXXXXXXXXXXXXX%%%%%%%%%%%%%%%%%%%",
"%%%%%%%%%%%%%%%%%%%%%%%%%%%%%%%%%%%%%%%%%%%%%%%%%%%%%%%%%%%%%%XXXXXXXXXXXXXXXXXXX%%%%%%%%%%%%%%%%%%%",
"%%%%%%%%%%%%%%%%%%%%%%%%%%%%%%%%%%%%%%%%%%%%%%%%%%%%%%%%%%%%%%XXXXXXXXXXXXXXXXXXX%%%%%%%%%%%%%%%%%%%",
"%%%%%%%%%%%%%%%%%%%%%%%%%%%%%%%%%%%%%%%%%%%%%%%%%%%%%%%%%%%%%%XXXXXXXXXXXXXXXXXXX%%%%%%%%%%%%%%%%%%%",
"%%%%%%%%%%%%%%%%%%%%%%%%%%%%%%%%%%%%%%%%%%%%%%%%%%%%%%%%%%%%%%%%%%%%%%%%%%%%%%%%%%%%%%%%%%%%%%%%%%%%",
"%%%%%%%%%%%%%%%%%%%%%%%%%%%%%%%%%%%%%%%%%%%%%%%%%%%%%%%%%%%%%%%%%%%%%%%%%%%%%%%%%%%%%%%%%%%%%%%%%%%%",
"%%%%%%%%%%%%%%%%%%%%%%%%%%%%%%%%%%%%%%%%%%%%%%%%%%%%%%%%%%%%%%%%%%%%%%%%%%%%%%%%%%%%%%%%%%%%%%%%%%%%",
"%%%%%%%%%%%%%%%%%%%%%%%%%%%%%%%%%%%%%%%%%%%%%%%%%%%%%%%%%%%%%%%%%%%%%%%%%%%%%%%%%%%%%%%%%%%%%%%%%%%%",
"%%%%%%%%%%%%%%%%%%%%%%%%%%%%%%%%%%%%%%%%%%%%%%%%%%%%%%%%%%%%%%%%%%%%%%%%%%%%%%%%%%%%%%%%%%%%%%%%%%%%",
"%%%%%%%%%%%%%%%%%%%%%%%%%%%%%%%%%%%%%%%%%%%%%%%%%%%%%%%%%%%%%%%%%%%%%%%%%%%%%%%%%%%%%%%%%%%%%%%%%%%%",
"%%%%%%%%%%%%%%%%%%%%%%%%%%%%%%%%%%%%%%%%%%%%%%%%%%%%%%%%%%%%%%%%%%%%%%%%%%%%%%%%%%%%%%%%%%%%%%%%%%%%",
"%%%%%%%%%%%%%%%%%%%%%%%%%%%%%%%%%%%%%%%%%%%%%%%%%%%%%%%%%%%%%%%%%%%%%%%%%%%%%%%%%%%%%%%%%%%%%%%%%%%%",
"%%%%%%%%%%%%%%%%%%%%%%%%%%%%%%%%%%%%%%%%%%%%%%%%%%%%%%%%%%%%%%%%%%%%%%%%%%%%%%%%%%%%%%%%%%%%%%%%%%%%",
"%%%%%%%%%%%%%%%%%%%%%%%%%%%%%%%%%%%%%%%%%%%%%%%%%%%%%%%%%%%%%%%%%%%%%%%%%%%%%%%%%%%%%%%%%%%%%%%%%%%%",
"%%%%%%%%%%%%%%%%%%%%%%%%%%%%%%%%%%%%%%%%%%%%%%%%%%%%%%%%%%%%%%%%%%%%%%%%%%%%%%%%%%%%%%%%%%%%%%%%%%%%"
};
