/* XPM */
static char *a9zid_tz9b9[] = {
/* columns rows colors chars-per-pixel */
"100 100 15 1 ",
"  c black",
". c #780E10",
"X c #144717",
"o c #224C29",
"O c #202840",
"+ c #686059",
"@ c #F40202",
"# c #FF2500",
"$ c #C97902",
"% c #008E00",
"& c #319B36",
"* c #F4E402",
"= c #263E82",
"- c #78ACB9",
"; c white",
/* pixels */
"&&&&&&&&&&&&&&&&&&&&&&&&&&&&&&&&&&&&&&&&&&&&&&&&&&&&&&&&&&&&&&&&&&&&&&&&&&&&&&&&&&&&&&&&&&&&&&&&&&&&",
"&&&&&&&&&&&&&&&&&&&&&&&&&&&&&&&&&&&&&&&&&&&&&&&&&&&&&&&&&&&&&&&&&&&&&&&&&&&&&&&&&&&&&&&&&&&&&&&&&&&&",
"&&&&&&&&&&&&&&&&&&&&&&&&&&&&&&&&&&&&&&&&&&&&&&&&&&&&&&&&&&&&&&&&&&&&&&&&&&&&&&&&&&&&&&&&&&&&&&&&&&&&",
"&&&&&&&&&&&&&&&&&&&&&&&&&&&&&&&&&&&&&&&&&&&&&&&&&&&&&&&&&&&&&&&&&&&&&&&&&&&&&&&&&&&&&&&&&&&&&&&&&&&&",
"&&&&&&&&&&&&&&&&&&&&&&&&&&&&&&&&&&&&&&&&&&&&&&&&&&&&&&&&&&&&&&&&&&&&&&&&&&&&&&&&&&&&&&&&&&&&&&&&&&&&",
"&&&&&&&&&&&&&&&&&&&&&&&&&&&&&&&&&&&&&&&&&&@&&&&&&&&&&&&&&&&&&&&&&&&&&&&&&&&&&&&&&&&&&&&&&&&&&&&&&&&&",
"&&&&&&&&&&&&&&&&&&&&&&&&&&&&&&&&&&&&&&&&&&@@&&&&&&&&&&&&&&&&&&&&&&&&&&&&&&&&&&&&&&&&&&&&&&&&&&&&&&&&",
"&&&&&&&&&&&&&&&&&&&&&&&&&&&&&&&&&&&&&&&&&@@@@&&&&&&&&&&&&&&&&&&&&&&&&&&&&&&&&&&&&&&&&&&&&&&&&&&&&&&&",
"&&&&&&&&&&&&&&&&&&&&&&&&&&&&&&&&&&&&&&&&&@$$@&&&&&&&&&&&&&&&&&&&&&&&&&&&&&&&&&&&&&&&&&&&&&&&&&&&&&&&",
"&&&&&&&&&&&&&&&&&&&&&&&&&&&&&&&&&&&&&&&&&@$$@&&&&&&&&&&&&&&&&&&&&&&&&&&&&&&&&&&&&&&&&&&&&&&&&&&&&&&&",
"&&&&&&&&&&&&&&&&&&&&&&&&&&&&&&&&&&&&&&&&&@$$@&&&&&&&&&&&&&&&&&&&&&&&&&&&&&&&&&&&&&&&&&&&&&&&&&&&&&&&",
"&&&&&&&&&&&&&&&&&&&&&&&&&&&&&&&&&&&&&&&&&@$$@&&&&&&&&&&&&&&&&&&&&&&&&&&&&&&&&&&%%%%&&&&&&&&&&&&&&&&&",
"&&&&&&&&&&&&&&&&&&&&&&&&&&&&&&&&&&&&&&&&@@$$@&&&&&&&&&&&&&&&&&&&&&&&&&&&&&%%%&&%%%%&&&&&&&&&&&&&&&&&",
"&&&&&&&&&&&&&%%%&&&&&&&&&&&&&&&&&&&&&&&&@$$$@&&&&&&&&&&&&&&&&&&&&&&&&&&&&%%%%%&%%%%%%&&&&&&&&&&&&&&&",
"&&&&&&&&&&&&%%%%&&&%%%&&&&&&&&&&&&&    @$$$$@             &&&&&&&&&&&&&&&%%%%%&%%%%%%%&&&&&&&&&&&&&&",
"&&&&&&&&&&&&%%%%%&%%%%%&&%%&&&&&&&&    @$$*$@@            &&&&&&&&&&&&&&&&%%%%%%%%%%%%&&&&&&&&&&&&&&",
"&&&&&&&&&&&&%%%%%&%%%%%&%%%%&&&&&&&    @$$*$$@@           &&&&&&&&&&&&&&&&%%%%%%%%%%%%&&&&&&&&&&&&&&",
"&&&&&&&&&&&&&%%%%%%%%%%&%%%%%&&&&&&   @@$$*$$$@           &&&&&&&&&&&&&&&&&%%%%%%%%%%&&&&&&&&&&&&&&&",
"&&&&&&&&&&&&&%%%%%%%%%&%%%%%&&&      @@$$$*$$$@@++++++....               &&&%%%%%%%%&&&&&&&&&&&&&&&&",
"&&&&&&&&&&&&&&%%%%%%%%%%%%%&&&&      @$$$**$$$@@++++++....               &&&%%%%%%%&&&&&&&&&&&&&&&&&",
"&&&&&&&&&&&&&&%%%%%%%%%%%%%&&&&      @$$$***$$$@++++++....               &&&&%%%%%&&&@&&&&&&&&&&&&&&",
"&&&&&&&&&&&&&&%%%%%%%%%%%%&&&&&      @$$*****$$@@+++++....               &&&&%%%%&&&&@@&&&&&&&&&&&&&",
"&&&&&&&&&&&                        ---    ++*$$$@+++++++++########...        &%%&&&&&@@&&&&&&&&&&&&&",
"&&&&&&&&&&&                        ---    +++++$@+++++++++########...        &&&&&&&&@@@&&&&&&&&&&&&",
"&&&&&&&&&&&                        ---    ++++++++++++++++########...        &&&&&&&&@$@&&&&&&&&&&&&",
"&&&&&&&&&&&                        ---    ++++++++++++++++########...        &&&&&&&&@$@@&&&&&&&&&&&",
"&&&&&&&&       ########        ;;;;;;;    ####++++++++###################        &&&&@$$@&&&&&&&&&&&",
"&&&&&&&&       ########        ;;;;;;;    ####++++++++###################        &&&@@$$@@&&&&&&&&&&",
"&&&&&&&&       ########  @@    ;;;;;;;    ####++++++++###################        &&&@$$$@@&&&&&&&&&&",
"&&&&&&&&   ############  @@@---;;;;   ....################++++###########          @@$$$$@@&&&&&&&&&",
"&&&&&&&&   ############ @@$$@--;;;;   ....################++++#@@########         @@$$$*$$@&&&&&&&&&",
"&&&&&&&&   ############ @$$$@--;;;;   ....################++++@@@########         @@@$$*$$@&&&&&&&&&",
"&&&&&&&&   ############ @$$@@--;;;;   ....################++++@$@@#######         @@$$**$$@@&&&&&&&&",
"&&&&&&&&   ############@$$$@@------   ################++++++++@$$@#######    OOOO @$$$***$$@&&&&&&&&",
"&&&&&&&&   ############@$*$@@------   ################++++++++@$$@#######    OOO@@@$$****$$@&&&&&&&&",
"&&&&&&&&   ############@$*$@@------   ################++++++++@$$@#######    OOOO@$$$****$$@&&&&&&&&",
"&&&&&&&&   ###########@@$*$@@------   ################+++++++@$$$$@######    OOOO  $*****$$@&&&&&&&&",
"&&&&       ++++++++###@$$*$$@==----   ################+++++++@$*$$@@#....    ;;;;OOO*****$$@ &&&&&&&",
"&&&&       ++++++++##@@$$**$@@=----   ################++++++@@$**$#@#....    ;;;;OOOO   **$@ &&&&&&&",
"&&&&       ++++++++##@$$***$$@@----   ################++++++@@$**$$@#....    ;;;;OOOO     $@ &&&&&&&",
"&&&&    ###++++++++ @@$$***$$$@@@==   ....##################@$$**$$@@    ------------           &&&&",
"&&&&    ###++++++++@@$$******$$@@==   ....##################@$$**$$#@    ------------           &&&&",
"&&&&    ###++++++++@$$$*******$$@==   ....#################@$$****$#@    ------------           &&&&",
"&&&&    ###++++++++@$$**===========   ....#################@$$****$$@@   ------------           &&&&",
"&&&&    ###########@$$*========                   ....####@@$******$@@   ====--------    ####   &&&&",
"&&&&    ###########    ========                   ....####@$$******$@@@  ====--------    ####   &&&&",
"&&&&    ###########    ========                   ....###@@$********$$@  ====--------    ####   &&&&",
"&&&&    ###########    ========                   ....###@$$********$$   ====--------    ####   &&&&",
"oooo    ...########    ====        =======OOOOOOOO                       ========OOOO    ####   &&&&",
"oooo    ...########    ====        =======OOOOOOOO                       ========OOOO    ####   &&&&",
"oooo    ...########    ====        =======OOOOOOOO                       ========OOOO    ####   &&&&",
"oooo    ...########    ====        =======OOOOOOOO                       ========OOOO    ####   &&&&",
"oooo                           ===============OOOOOOOO    OOOO=======        ====    ########   &&&&",
"oooo                           ===============OOOOOOOO    OOOO=======        ====    ########   &&&&",
"oooo                           ===============OOOOOOOO    OOOO=======        ====    ########   &&&&",
"oooo    ...........                           OOOOOOOO    OOOOOOOO=======            ####....   oooo",
"oooo    ...........@                          OOOOOOOO    OOOOOOOO=======            ####....   oooo",
"oooo    ..........@@@                         OOOOOOOO    OOOOOOOO=======            ####....   oooo",
"oooo    ..........@$@                         OOOOOOOO    OOOOOOOO=======            ####....   oooo",
"oooo       .......@$@..........    .......                           ========        ####       oooo",
"oooo       .......@$@@.........    .......                           =====@==        ####       oooo",
"oooo       .......@$$@.........    .......                           =====@==        ####       oooo",
"oooo       ......@@$$@@........    .......                           =====@@@        ####       oooo",
"oooooooo         @$$*$@    ........   ............    ...............     @$@        ....    ooooooo",
"oooooooo         @$$*$@@   ........   ............    ...............    @@$@        ....    ooooooo",
"oooooooo         @$$*$@@   ........   ............    ...............    @$$@        ....    ooooooo",
"ooooooooooo    @@$$**$$@OOO                           ............       @$$$@...            ooo&&&&",
"ooooooooooo    @$$$***$@OOO                           ............      @@$$$@...            ooo&&&&",
"ooooooooooo        OOOOOOOO                           ............     @$$$*$$@..            ooo&&&&",
"ooooooooooo        OOOOOOOO                           ............     @$$**$$@@.            ooo&&&&",
"&&&&ooooooooooo    OOOOOOOOOOOO                                   OOOOO@O$***$$@         ooooooo&&&&",
"&&&&ooooooooooo    OOOOOOOOOOOO                                   OOOOOOO   *$$@         ooooooo&&&&",
"&&&&ooooooooooo    OOOOOOOOOOOO                                   OOOOOOO   *$$@         ooooooo&&&&",
"&&&&ooooooooooo    OOOOOOOOOOOO                                   OOOOOOO                ooooooo&&&&",
"&&&&&&&&ooooooo        OOOO        ooooooooooooooo                OOOOOOOOOOO        oooooooo&&&&&&&",
"&&&&&&&&ooooooo        OOOO        ooooooooooooooo                OOOOOOOOOOO        oooooooo&&&&&&&",
"&&&&&&&&ooooooo        OOOO        ooooooooooooooo                OOOOOOOOOOO        oooooooo&&&&&&&",
"&&&&&&&&&&&oooooooooXXXXXXXXXXoooooooooooooooooooooooooooooooo       OOOO        XXXooooooooo&&&&&&&",
"&&&&&&&&&&&oooooooooXXXXXXXXXooooooooooooooooooooooooooooooooo       OOOO        XXXooooooooo&&&&&&&",
"&&&&&&&&&&&oooooooooXXXXXXXXoooooooooooooooooooooooooooooooooo       OOOO        XXoooooooooo&&&&&&&",
"&&&&&&&&&&&oooooooooXXXXXXXooooooooooooooooooooooooooooooooooo       OOOO        Xooooooooooo&&&&&&&",
"&&&&&&&&&&&&&&&&&&&&&%%%%%&&&&&&&&&oooooooooooooooooooooooooooooooooooooooooXXXXXoooooooo&&&&&&&&&&&",
"&&&&&&&&&&&&&&&&&&&&&%%%%&&&&&&&&&&oooooooooooooooooooooooooooooooooooooooooXXXXooooooooo&&&&&&&&&&&",
"&&&&&&&&&&&&&&&&&&&&&&%%&&&&&&&&&&&ooooooooooooooooooooooooooooooooooooooooooXXoooooooooo&&&&&&&&&&&",
"&&&&&&&&&&&&&&&&&&&&&&&&&&&&&&&&&&&oooooooooooooooooooooooooooooooooooooooooooooooooooooo&&&&&&&&&&&",
"&&&&&&&&&&&&&&&&&&&&&&&&&&&&&&&&&&&&&&&&&&&&&&&&&&&&&&&&&&&&&&ooooooooooooooooooo&&&&&&&&&&&&&&&&&&&",
"&&&&&&&&&&&&&&&&&&&&&&&&&&&&&&&&&&&&&&&&&&&&&&&&&&&&&&&&&&&&&&ooooooooooooooooooo&&&&&&&&&&&&&&&&&&&",
"&&&&&&&&&&&&&&&&&&&&&&&&&&&&&&&&&&&&&&&&&&&&&&&&&&&&&&&&&&&&&&ooooooooooooooooooo&&&&&&&&&&&&&&&&&&&",
"&&&&&&&&&&&&&&&&&&&&&&&&&&&&&&&&&&&&&&&&&&&&&&&&&&&&&&&&&&&&&&ooooooooooooooooooo&&&&&&&&&&&&&&&&&&&",
"&&&&&&&&&&&&&&&&&&&&&&&&&&&&&&&&&&&&&&&&&&&&&&&&&&&&&&&&&&&&&&&&&&&&&&&&&&&&&&&&&&&&&&&&&&&&&&&&&&&&",
"&&&&&&&&&&&&&&&&&&&&&&&&&&&&&&&&&&&&&&&&&&&&&&&&&&&&&&&&&&&&&&&&&&&&&&&&&&&&&&&&&&&&&&&&&&&&&&&&&&&&",
"&&&&&&&&&&&&&&&&&&&&&&&&&&&&&&&&&&&&&&&&&&&&&&&&&&&&&&&&&&&&&&&&&&&&&&&&&&&&&&&&&&&&&&&&&&&&&&&&&&&&",
"&&&&&&&&&&&&&&&&&&&&&&&&&&&&&&&&&&&&&&&&&&&&&&&&&&&&&&&&&&&&&&&&&&&&&&&&&&&&&&&&&&&&&&&&&&&&&&&&&&&&",
"&&&&&&&&&&&&&&&&&&&&&&&&&&&&&&&&&&&&&&&&&&&&&&&&&&&&&&&&&&&&&&&&&&&&&&&&&&&&&&&&&&&&&&&&&&&&&&&&&&&&",
"&&&&&&&&&&&&&&&&&&&&&&&&&&&&&&&&&&&&&&&&&&&&&&&&&&&&&&&&&&&&&&&&&&&&&&&&&&&&&&&&&&&&&&&&&&&&&&&&&&&&",
"&&&&&&&&&&&&&&&&&&&&&&&&&&&&&&&&&&&&&&&&&&&&&&&&&&&&&&&&&&&&&&&&&&&&&&&&&&&&&&&&&&&&&&&&&&&&&&&&&&&&",
"&&&&&&&&&&&&&&&&&&&&&&&&&&&&&&&&&&&&&&&&&&&&&&&&&&&&&&&&&&&&&&&&&&&&&&&&&&&&&&&&&&&&&&&&&&&&&&&&&&&&",
"&&&&&&&&&&&&&&&&&&&&&&&&&&&&&&&&&&&&&&&&&&&&&&&&&&&&&&&&&&&&&&&&&&&&&&&&&&&&&&&&&&&&&&&&&&&&&&&&&&&&",
"&&&&&&&&&&&&&&&&&&&&&&&&&&&&&&&&&&&&&&&&&&&&&&&&&&&&&&&&&&&&&&&&&&&&&&&&&&&&&&&&&&&&&&&&&&&&&&&&&&&&",
"&&&&&&&&&&&&&&&&&&&&&&&&&&&&&&&&&&&&&&&&&&&&&&&&&&&&&&&&&&&&&&&&&&&&&&&&&&&&&&&&&&&&&&&&&&&&&&&&&&&&"
};
