/* XPM */
static char *albmh_zwnjr[] = {
/* columns rows colors chars-per-pixel */
"100 100 12 1 ",
"  c black",
". c #780F0F",
"X c #202840",
"o c #686159",
"O c red",
"+ c #319B36",
"@ c #FF8000",
"# c #FFBE00",
"$ c yellow",
"% c #273E82",
"& c #78ACB9",
"* c gray99",
/* pixels */
"++++++++++++++++++++++++++++++++++++++++++++++++++++++++++++++++++++++++++++++++++++++++++++++++++++",
"++++++++++++++++++++++++++++++++++++++++++++++++++++++++++++++++++++++++++++++++++++++++++++++++++++",
"+++++++++++++++++++++++++++++++++++++++++++++++OOO++++++++++++++++++++++++++++++++++++++++++++++++++",
"+++++++++++++++++++++++++++++++++++++++++++++++OOO++++++++++++++++++++++++++++++++++++++++++++++++++",
"+++++++++++++++++++++++++++++++++++++++++++++OO@@@OO++++++++++++++++++++++++++++++++++++++++++++++++",
"+++++++++++++++++++++++++++++++++++++++++++++OO@@@OO++++++++++++OO++++++++++++++++++++++++++++++++++",
"++++++++++++++++++++++++++++++++++++++++++++OOO@@@OO++++++++++++OO++++++++++++++++++++++++++++++++++",
"++++++++++++++++++++++++++++++++++++++++++++O@@$$$@@O+++++++++++OO++++++++++++++++++++++++++++++++++",
"++++++++++++++++++++++++++++++++++++++++++OOO@@$$$@@O++++++++OOO@@OOO+++++++++++++++++++++++++++++++",
"++++++++++++++++++++++++++++++++++++++++++OOO$$$$$$$O++++++++OOO@@OOO+++++++++++++++++++++++++++++++",
"++++++++++++++++++++++++++++++++++++++++++OOO$$$$$$$O+++++OOO@@@$$@@@OOO++++++++++++++++++++++++++++",
"+++++++++++++++++++OOO++++++++++++++++++OOOO@*******@OOOO+OOO@@@$$@@@OOO++++++++++++++++++++++++++++",
"++++++++++++++++++O@@@O+++++++++++++++++OOOO@*******@OOOO+OOO$$$$$$$$OOO++++++++++++++++++++++++++++",
"++++++++++++++++++O@@@O+++++++++++++++++OOOO#*******#OOOO+OOO$$$$$$$$OOO++++++++++++++++++++++++++++",
"++++++++++++++++++O@@@O+++++++++++++++++OOOO#*******#OOOOO@@@********@@@O+++++++++++++++++++++++++++",
"++++++++++++++++OO@$$$@OO++++++++++     OOOO#$$***$$#OOOOO@@@********@@@O+++++++++++++++++++++++++++",
"++++++++++++++++OO@$$$@OO++++++++++     OOOO#$$***$$#OOOOO@@@********@@@O+++++++++++++++++++++++++++",
"++++++++++++++++OO$$$$$OOO+++++++++       OOO#######O    O@@@********@@@O+++++++++++++++++++++++++++",
"++++++++++++++++OO$$$$$OOO++++++          OOO#######O....O###********###O+++++++++++++++++++++++++++",
"+++++++++++++++O@@*****@@O++++++           oO#######O....O###********###O+++++++++++++++++++++++++++",
"+++++++++++++++O@@*****@@OOO++++           oooooooooo....O###$$$**$$$###O+++++++++++++++++++++++++++",
"++++++++++++++OO##*****##OOO++++           oooooooooo....O###$$$**$$$###O+++++++++++++++++++++++++++",
"++++++++++++++OO##*****##OOO++++           oooooooooo.... OOO########OOO++++++++++++++++++++++++++++",
"++++++++++++  OO##$***$##OOO       &&&&    ooooooooooooooOOOO########OOO   +++++++++++++++++++++++++",
"++++++++++++  OO##$***$##OOO       &&&&    ooooooooooooooO@@@OOO...        +++  ++++++++++++++++++++",
"++++++++++++  OOOO#####OOOOO       &&&&    ooooooooooooOO@$$$@OO...        +++  ++++++++++++++++++++",
"++++++++++      OO#####OOO      &&&&&&&    OOOoooooooOOOO@$$$@OOOOOOOOOO        ++++++++++++++++++++",
"++++++++++     OOO#####OOO      &&&&&&&    OOOoooooooOOOO$$$$$OOOOOOOOOO       OO+++++++++++++++++++",
"++++++++++     OO OOOOOO        &&&&&&&    OOOoooooooOOOO$$$$$OOOOOOOOOO      O@@O++++++++++++++++++",
"++++++++++    O@@OOOOOOO        &&&&&&&    OOOoooooooOO@@*****@@OOOOOOOO      O@@O++++++++++++++++++",
"++++++++++  OO@$$@OOOOOO        &&&&&&&    OOOoooooooOO@@*****@@OOOOOOOO     O@$$@O+++++++++++++++++",
"++++++++++  OO@$$@OOOOOO    &&&&&&&    ...O@@OOOOOOOOOO##*****##OOOOOOOO     O@$$@O+++++++++++++++++",
"++++++++++  OO$$$$OOOOOO    &&&&&&&    ...O@@OOOOOOOOOO##*****##OOOOOOOO     O$$$$OO++++++++++++++++",
"++++++++++  OO$$$$OOOOOO    &&&&&&&    OOO@$$@OOOOOOOoO##$***$##OOOOOOOO   XXO$$$$OO   +++++++++++++",
"++++++++++ O@@****@@OOOO    &&&&&&&    OOO$$$$OOOOOOOoO##$***$##OOOOOOOO   OO@****@OO  +++++++++++++",
"++++++++++ O@@****@@OOOO    &&&&&&&    OOO$$$$OOOOOOOoOOO#####OOOOOOOOOO   OO#****#OOO +++++++++++++",
"++++++++++ O##****##OOOO    &&&&&&&    OOO$$$$OOOOOOOooOO#####OOOOOOOOOO   OO#****#OOO +++++++++++++",
"++++++++++ O##****##OOOO    &&&&&&&   OO@@****@@OOOOOoooooooooooOOOOOOOO   OO#$**$#OOO +++++++++++++",
"++++++     O##$**$##OOOO    %%%%&&&   OO##****##OOOOOooooooooOOOOOO.....   OO#$**$#OOO   +++++++++++",
"++++++     O##$**$##OOOO    %%%%&&&   OO##****##OOOOOooooooooOOOOOO.....   &&O####OO     +++++++++++",
"++++++     OOO####OOOOOO    %%%%&&&   OO##****##OOOOOooooooooOOOOOO.....   &&O####OO     +++++++++++",
"++++++    OOOO####OOo   %%%%%%%%%%%   OO##$**$##OOOOOOOOOOOOOOOOOOO     &&&&&&&&&&&         ++++++++",
"++++++    OOOO####OOo   %%%%%%%%%%%    OOO####OOOOOOOOOOOOOOOOOOOOO     &&&&&&&&&&&         ++++++++",
"++++++    OOooooooooo   %%%%%%%%%%%    OOO####OOOOOOOOOOOOOOOOOOOOO     &&&&&&&&&&&         ++++++++",
"++++++    OOooooooooo   %%%%%%%%%%%    ..O#####OOOOOOOOOOOOOOOOOOOO     &&&&&&&&&&&         ++++++++",
"++++++    OOOOOOOOOOO   %%%%%%%%                  ...OOOOOOOOOOO...     %%%&&&&&&&&    OO   ++++++++",
"++++++    OOOOOOOOOOO   %%%%%%%%                  ...OOOOOOOOOOO...     %%%&&&&&&&&    OO   ++++++++",
"++++++    OOOOOOOOOOO   %%%%%%%%                  ...OOOOOOOOOOO...     %%%&&&&&&&&    OO   ++++++++",
"++++++    OOOOOOOOOOO   %%%%%%%%                  ...OOOOOOOOOOO...     %%%&&&&&&&&    OO   ++++++++",
"++++++    ..OOOOOOOOO   %%%%       %%%%%%%%XXXXXXX                      %%%%%%XXXXX    OO   ++++++++",
"++++++    ..OOOOOOOOO   %%%%       %%%%%%%%XXXXXXX                      %%%%%%XXXXX    OO   ++++++++",
"++++++    ..OOOOOOOOO   %%%%       %%%%%%%%XXXXXXX                      %%%%%%XXXXX    OO   ++++++++",
"++++++    ..OOOOOOOOO   %%%%       %%%%%%%%XXXXXXX                      %%%%%%XXXXX    OO   ++++++++",
"++++++                          %%%%%%%%%%%%%%XXXXXXX    XXXX%%%%%%        %%%     OOOOOO   ++++++++",
"++++++                          %%%%%%%%%%%%%%XXXXXXX    XXXX%%%%%%        %%%     OOOOOO   ++++++++",
"++++++                          %%%%%%%%%%%%%%XXXXXXX    XXXX%%%%%%        %%%     OOOOOO   ++++++++",
"++++++    ...........                         XXXXXXX    XXXXXXX%%%%%%%%           OOOO..   ++++++++",
"++++++    .....O.....                         XXXXXXX    XXXXXXX%%%%%OO%           OOOO..   ++++++++",
"++++++    ....O@O....                         XXXXXXX    XXXXXXX%%%%O@@O           OOOO..   ++++++++",
"++++++    ...O@$@O...                         XXXXXXX    XXXXXXX%%%%O@@O           OOOO..   ++++++++",
"++++++      .O$$$O..............   ........   O                    O@$$@O%%        OOOO     ++++++++",
"++++++      O@***@O.............   ........  O@O                   O@$$@O%%        OOOO     ++++++++",
"++++++      O#***#O.............   ........  O@O                  OO$$$$O%%        OOOO     ++++++++",
"++++++      O#$*$#O.............   ........ O@$@O                OO@****@OO        OOOO     ++++++++",
"++++++++++  OO###OO         OO.....    .....O$$$O.   ............OO@****@OO        ....  +++++++++++",
"++++++++++   O###O        OO@@O....    ...OO@***@OO  ...........OOO#****#OO        ....  +++++++++++",
"++++++++++                OO@@OO...    ...OO#***#OO  ...........OOO#$**$#OO        ....  +++++++++++",
"++++++++++              OO@@$$@OOO.    ...OO#$*$#OO  ...........OOO#$**$#OO        ....  +++++++++++",
"++++++++++++         XXXOO@@$$@OOO         OO###OO   ...........OOOO####OOO...           +++++++++++",
"++++++++++++         XXXOO$$$$$OOO          O###O    ...........OO#O####OOO...           +++++++++++",
"++++++++++++         XXO@@*****@@@O                  ...........  O#####O.....           +++++++++++",
"++++++++++++++++++   XXO@@*****@@@OO                            XXXXXXXX               +++++++++++++",
"++++++++++++++++++   XXO##*****###OO                            XXXXXXXX               +++++++++++++",
"++++++++++++++++++   XXO##$$**$###OO                            XXXXXXXX               +++++++++++++",
"++++++++++++++++++   XXO##$$**$###OO                            XXXXXXXX               +++++++++++++",
"++++++++++++++++++   XXOOO#####OOOOO                            OXXXXXXX               +++++++++++++",
"++++++++++++++++++     OOO#####OOOOO++++++++++++++             O@OXXXXXXXXX        +++++++++++++++++",
"++++++++++++++++++      XOO#####OO +++++++++++++++            O@$@OXXXXXXXX        +++++++++++++++++",
"+++++++++++++++++++++          ++++++++++++++++++++++++++++++ O$$$OXXXXX         +++++++++++++++++++",
"+++++++++++++++++++++          +++++++++++++++++++++++++++++OO@***@OOXXX        ++++++++++++++++++++",
"++++++++++++++++++++++++++++++++++++++++++++++++++++++++++++OO#***#OOXXX      ++++++++++++++++++++++",
"++++++++++++++++++++++++++++++++++++++++++++++++++++++++++++OO#$*$#OOXXX      ++++++++++++++++++++++",
"+++++++++++++++++++++++++++++++++++++++++++++++++++++++++++++ O###OXXXXX      ++++++++++++++++++++++",
"++++++++++++++++++++++++++++++++++++++++++++++++++++++++++++++++++++++++++++++++++++++++++++++++++++",
"++++++++++++++++++++++++++++++++++++++++++++++++++++++++++++++++++++++++++++++++++++++++++++++++++++",
"++++++++++++++++++++++++++++++++++++++++++++++++++++++++++++++++++++++++++++++++++++++++++++++++++++",
"++++++++++++++++++++++++++++++++++++++++++++++++++++++++++++++++++++++++++++++++++++++++++++++++++++",
"++++++++++++++++++++++++++++++++++++++++++++++++++++++++++++++++++++++++++++++++++++++++++++++++++++",
"++++++++++++++++++++++++++++++++++++++++++++++++++++++++++++++++++++++++++++++++++++++++++++++++++++",
"++++++++++++++++++++++++++++++++++++++++++++++++++++++++++++++++++++++++++++++++++++++++++++++++++++",
"++++++++++++++++++++++++++++++++++++++++++++++++++++++++++++++++++++++++++++++++++++++++++++++++++++",
"++++++++++++++++++++++++++++++++++++++++++++++++++++++++++++++++++++++++++++++++++++++++++++++++++++",
"++++++++++++++++++++++++++++++++++++++++++++++++++++++++++++++++++++++++++++++++++++++++++++++++++++",
"++++++++++++++++++++++++++++++++++++++++++++++++++++++++++++++++++++++++++++++++++++++++++++++++++++",
"++++++++++++++++++++++++++++++++++++++++++++++++++++++++++++++++++++++++++++++++++++++++++++++++++++",
"++++++++++++++++++++++++++++++++++++++++++++++++++++++++++++++++++++++++++++++++++++++++++++++++++++",
"++++++++++++++++++++++++++++++++++++++++++++++++++++++++++++++++++++++++++++++++++++++++++++++++++++",
"++++++++++++++++++++++++++++++++++++++++++++++++++++++++++++++++++++++++++++++++++++++++++++++++++++",
"++++++++++++++++++++++++++++++++++++++++++++++++++++++++++++++++++++++++++++++++++++++++++++++++++++",
"++++++++++++++++++++++++++++++++++++++++++++++++++++++++++++++++++++++++++++++++++++++++++++++++++++"
};
