/* XPM */
static char *a6eym_fyhf3[] = {
/* columns rows colors chars-per-pixel */
"100 100 12 1 ",
"  c black",
". c #780F0F",
"X c #202840",
"o c #686159",
"O c red",
"+ c #319B36",
"@ c #FF8000",
"# c #FFBE00",
"$ c yellow",
"% c #273E82",
"& c #78ACB9",
"* c gray99",
/* pixels */
"++++++++++++++++++++++++++++++++++++++++++++++++++++++++++++++++++++++++++++++++++++++++++++++++++++",
"++++++++++++++++++++++++++++++++++++++++++++++++++++++++++++++++++++++++++++++++++++++++++++++++++++",
"++++++++++++++++++++++++++++++++++++++++++++++++++++++++++++++++++++++++++++++++++++++++++++++++++++",
"++++++++++++++++++++++++++++++++++++++++++++++++++++++++++++++++++++++++++++++++++++++++++++++++++++",
"++++++++++++++++++++++++++++++++++++++++++++++OOO+++++++++++++++++++++++++++++++++++++++++++++++++++",
"++++++++++++++++++++++++++++++++++++++++++++++OOO+++++++++++++++++++++++++++++++++++++++++++++++++++",
"++++++++++++++++++++++++++++++++++++++++++++OO@@@OO+++++++++++++++++++++++++++++++++++++++++++++++++",
"++++++++++++++++++++++++++++++++++++++++++++OO@@@OO+++++++++++++++++++++++++++++++++++++++++++++++++",
"++++++++++++++++++++++++++++++++++++++++++OO@@$$$@@OO+++++++++++OO++++++++++++++++++++++++++++++++++",
"++++++++++++++++++++++++++++++++++++++++++OO@@$$$@@OO+++++++++++OO++++++++++++++++++++++++++++++++++",
"++++++++++++++++++++++++++++++++++++++++++OO$$$$$$$OO+++++++++OO@@OO++++++++++++++++++++++++++++++++",
"++++++++++++++++++++++++++++++++++++++++OO@@*******@@OO+++++++OO@@OO++++++++++++++++++++++++++++++++",
"++++++++++++++++++++++++++++++++++++++++OO@@*******@@OO++++OOO@@$$@@OOO+++++++++++++++++++++++++++++",
"++++++++++++++++++++++++++++++++++++++++OO##*******##OO++++OOO@@$$@@OOO+++++++++++++++++++++++++++++",
"++++++++++++++++++++OO++++++++++++++++++OO##*******##OO++++OOO$$$$$$OOO+++++++++++++++++++++++++++++",
"++++++++++++++++++++OO+++++++++++++     OO##$$***$$##OO  ++OOO$$$$$$OOO+++++++++++++++++++++++++++++",
"++++++++++++++++++OO@@OO+++++++++++     OO##$$***$$##OO  OO@@@******@@@OO+++++++++++++++++++++++++++",
"++++++++++++++++OO@@$$@@OO+++++++++       OO#######OO    OO@@@******@@@OO+++++++++++++++++++++++++++",
"++++++++++++++++OO@@$$@@OO++++++          OO#######OO....OO###******###OO+++++++++++++++++++++++++++",
"++++++++++++++++OO$$$$$$OO++++++           oooooooooo....OO###******###OO+++++++++++++++++++++++++++",
"++++++++++++++++OO$$$$$$OO++++++           oooooooooo....OO###$$**$$###OO+++++++++++++++++++++++++++",
"++++++++++++++OO@@******@@OO++++           oooooooooo....OO###$$**$$###OO+++++++++++++++++++++++++++",
"++++++++++++++OO@@******@@OO++++           oooooooooo....  OOO######OOO ++++++++++++++++++++++++++++",
"++++++++++++  OO##******##OO       &&&&    ooooooooooooooOOOOO######OOO    +++++++++++++++++++++++++",
"++++++++++++  OO##******##OO       &&&&    ooooooooooooooOOOOOOO...        +++  ++++++++++++++++++++",
"++++++++++++  OO##$$**$$##OO       &&&&    ooooooooooooooOO@OOOO...        +++  ++++++++++++++++++++",
"++++++++++      OO######OO      &&&&&&&    OOOoooooooOOOOOO@OOOOOOOOOOOO        ++++++++++++++++++++",
"++++++++++      OO######OO      &&&&&&&    OOOoooooooOOOO@@$@@OOOOOOOOOO        ++++++++++++++++++++",
"++++++++++        OOOOOO        &&&&&&&    OOOoooooooOOOO@@$@@OOOOOOOOOO        ++++++++++++++++++++",
"++++++++++     OO OOOOOO        &&&&&&&    OOOoooooooOOOO$$$$$OOOOOOOOOO        O+++++++++++++++++++",
"++++++++++     OO OOOOOO        &&&&&&&    OOOoooooooOO@@*****@@OOOOOOOO      ++O+++++++++++++++++++",
"++++++++++  OOO@@OOOOOOO    &&&&&&&    ....OOOOOOOOOOOO@@*****@@OOOOOOOO      OO@OO+++++++++++++++++",
"++++++++++  OO@$$@OOOOOO    &&&&&&&    ....OOOOOOOOOOOO##*****##OOOOOOOO     O@@$@@O++++++++++++++++",
"++++++++++  OO@$$@OOOOOO    &&&&&&&    OOOOO@OOOOOOOOoO##*****##OOOOOOOO   XXO@@$@@O   +++++++++++++",
"++++++++++  OO$$$$OOOOOO    &&&&&&&    OOOOO@OOOOOOOOoO##$$*$$##OOOOOOOO   XXO$$$$$O   +++++++++++++",
"++++++++++  OO$$$$OOOOOO    &&&&&&&    OOO@@$@@OOOOOOoO##$$*$$##OOOOOOOO   OO@*****@OO +++++++++++++",
"++++++++++ O@@****@@OOOO    &&&&&&&    OOO@@$@@OOOOOOooOO#####OOOOOOOOOO   OO#*****#OO +++++++++++++",
"++++++++++ O@@****@@OOOO    &&&&&&&    OOO$$$$$OOOOOOoooooooooooOOOOOOOO   OO#*****#OO +++++++++++++",
"++++++     O##****##OOOO    %%%%&&&    OO@*****@OOOOOooooooooOOOOOO.....   OO#$$*$$#OO   +++++++++++",
"++++++     O##****##OOOO    %%%%&&&    OO@*****@OOOOOooooooooOOOOOO.....   &&O#####O     +++++++++++",
"++++++     O##$**$##OOOO    %%%%&&&    OO#*****#OOOOOooooooooOOOOOO.....   &&O#####O     +++++++++++",
"++++++    OOOO####OOo   %%%%%%%%%%%    OO#*****#OOOOOOOOOOOOOOOOOOO     &&&&&&&&&&&         ++++++++",
"++++++    OOOO####OOo   %%%%%%%%%%%    OO#$$*$$#OOOOOOOOOOOOOOOOOOO     &&&&&&&&&&&         ++++++++",
"++++++    OOooooooooo   %%%%%%%%%%%    OO#$$*$$#OOOOOOOOOOOOOOOOOOO     &&&&&&&&&&&         ++++++++",
"++++++    OOooooooooo   %%%%%%%%%%%    ..O#####OOOOOOOOOOOOOOOOOOOO     &&&&&&&&&&&         ++++++++",
"++++++    OOOOOOOOOOO   %%%%%%%%                  ...OOOOOOOOOOO...     %%%&&&&&&&&    OO   ++++++++",
"++++++    OOOOOOOOOOO   %%%%%%%%                  ...OOOOOOOOOOO...     %%%&&&&&&&&    OO   ++++++++",
"++++++    OOOOOOOOOOO   %%%%%%%%                  ...OOOOOOOOOOO...     %%%&&&&&&&&    OO   ++++++++",
"++++++    OOOOOOOOOOO   %%%%%%%%                  ...OOOOOOOOOOO...     %%%&&&&&&&&    OO   ++++++++",
"++++++    ..OOOOOOOOO   %%%%       %%%%%%%%XXXXXXX                      %%%%%%XXXXX    OO   ++++++++",
"++++++    ..OOOOOOOOO   %%%%       %%%%%%%%XXXXXXX                      %%%%%%XXXXX    OO   ++++++++",
"++++++    ..OOOOOOOOO   %%%%       %%%%%%%%XXXXXXX                      %%%%%%XXXXX    OO   ++++++++",
"++++++    ..OOOOOOOOO   %%%%       %%%%%%%%XXXXXXX                      %%%%%%XXXXX    OO   ++++++++",
"++++++                          %%%%%%%%%%%%%%XXXXXXX    XXXX%%%%%%        %%%     OOOOOO   ++++++++",
"++++++                          %%%%%%%%%%%%%%XXXXXXX    XXXX%%%%%%        %%%     OOOOOO   ++++++++",
"++++++                          %%%%%%%%%%%%%%XXXXXXX    XXXX%%%%%%        %%%     OOOOOO   ++++++++",
"++++++    ...........                         XXXXXXX    XXXXXXX%%%%%%%%           OOOO..   ++++++++",
"++++++    ...........                         XXXXXXX    XXXXXXX%%%%%%%%           OOOO..   ++++++++",
"++++++    .....O.....                         XXXXXXX    XXXXXXX%%%%%%%%           OOOO..   ++++++++",
"++++++    ....O@O....                         XXXXXXX    XXXXXXX%%%%%O%%           OOOO..   ++++++++",
"++++++      .O@$@O..............   ........                        %%O%%%%%        OOOO     ++++++++",
"++++++      .O$$$O..............   ........                        OO@OO%%%        OOOO     ++++++++",
"++++++      O@***@O.............   ........   O                   O@@$@@O%%        OOOO     ++++++++",
"++++++      O#***#O.............   ........  O@O                  O@@$@@O%%        OOOO     ++++++++",
"++++++++++  O#$*$#O         .......    .....O@$@O.   .............O$$$$$O          ....  +++++++++++",
"++++++++++   O###O          .O.....    .....O$$$O.   ...........OO@*****@OO        ....  +++++++++++",
"++++++++++                 OO@OO...    ....O@***@O   ...........OO@*****@OO        ....  +++++++++++",
"++++++++++                 OO@OO...    ....O#***#O   ...........OO#*****#OO        ....  +++++++++++",
"++++++++++++         XXXXOO@@$@@OO         O#$*$#O   ...........OO#$$*$$#OO...           +++++++++++",
"++++++++++++         XXXXOO@@$@@OO          O###O    ...........OO#$$*$$#OO...           +++++++++++",
"++++++++++++         XXXXOO$$$$$OO                   ...........  O#####O.....           +++++++++++",
"++++++++++++++++++   XXOO@@*****@@OO                            XXXXXXXX               +++++++++++++",
"++++++++++++++++++   XXOO@@*****@@OO                            XXXXXXXX               +++++++++++++",
"++++++++++++++++++   XXOO##*****##OO                            XXXXXXXX               +++++++++++++",
"++++++++++++++++++   XXOO##*****##OO                            XXXXXXXX               +++++++++++++",
"++++++++++++++++++   XXOO##$$*$$##OO                            OXXXXXXX               +++++++++++++",
"++++++++++++++++++     OO##$$*$$##OO++++++++++++++             O@OXXXXXXXXX        +++++++++++++++++",
"++++++++++++++++++      XOO#####OO +++++++++++++++            O@$@OXXXXXXXX        +++++++++++++++++",
"+++++++++++++++++++++          ++++++++++++++++++++++++++++++ O$$$OXXXXX         +++++++++++++++++++",
"+++++++++++++++++++++          ++++++++++++++++++++++++++++++O@***@OXXXX        ++++++++++++++++++++",
"+++++++++++++++++++++++++++++++++++++++++++++++++++++++++++++O#***#OXXXX      ++++++++++++++++++++++",
"+++++++++++++++++++++++++++++++++++++++++++++++++++++++++++++O#$*$#OXXXX      ++++++++++++++++++++++",
"+++++++++++++++++++++++++++++++++++++++++++++++++++++++++++++ O###OXXXXX      ++++++++++++++++++++++",
"++++++++++++++++++++++++++++++++++++++++++++++++++++++++++++++++++++++++++++++++++++++++++++++++++++",
"++++++++++++++++++++++++++++++++++++++++++++++++++++++++++++++++++++++++++++++++++++++++++++++++++++",
"++++++++++++++++++++++++++++++++++++++++++++++++++++++++++++++++++++++++++++++++++++++++++++++++++++",
"++++++++++++++++++++++++++++++++++++++++++++++++++++++++++++++++++++++++++++++++++++++++++++++++++++",
"++++++++++++++++++++++++++++++++++++++++++++++++++++++++++++++++++++++++++++++++++++++++++++++++++++",
"++++++++++++++++++++++++++++++++++++++++++++++++++++++++++++++++++++++++++++++++++++++++++++++++++++",
"++++++++++++++++++++++++++++++++++++++++++++++++++++++++++++++++++++++++++++++++++++++++++++++++++++",
"++++++++++++++++++++++++++++++++++++++++++++++++++++++++++++++++++++++++++++++++++++++++++++++++++++",
"++++++++++++++++++++++++++++++++++++++++++++++++++++++++++++++++++++++++++++++++++++++++++++++++++++",
"++++++++++++++++++++++++++++++++++++++++++++++++++++++++++++++++++++++++++++++++++++++++++++++++++++",
"++++++++++++++++++++++++++++++++++++++++++++++++++++++++++++++++++++++++++++++++++++++++++++++++++++",
"++++++++++++++++++++++++++++++++++++++++++++++++++++++++++++++++++++++++++++++++++++++++++++++++++++",
"++++++++++++++++++++++++++++++++++++++++++++++++++++++++++++++++++++++++++++++++++++++++++++++++++++",
"++++++++++++++++++++++++++++++++++++++++++++++++++++++++++++++++++++++++++++++++++++++++++++++++++++",
"++++++++++++++++++++++++++++++++++++++++++++++++++++++++++++++++++++++++++++++++++++++++++++++++++++",
"++++++++++++++++++++++++++++++++++++++++++++++++++++++++++++++++++++++++++++++++++++++++++++++++++++",
"++++++++++++++++++++++++++++++++++++++++++++++++++++++++++++++++++++++++++++++++++++++++++++++++++++"
};
