/* XPM */
static char *am3un_anczt[] = {
/* columns rows colors chars-per-pixel */
"100 100 73 1 ",
"  c black",
". c #1D0000",
"X c #330000",
"o c #3A0000",
"O c #000020",
"+ c #000025",
"@ c #170625",
"# c #000030",
"$ c #000034",
"% c #660000",
"& c #5A2700",
"* c #5B2C00",
"= c #663500",
"- c #714E30",
"; c #000055",
": c #002C42",
"> c #002C5C",
", c #003555",
"< c #002775",
"1 c #003578",
"2 c #005F55",
"3 c #31517C",
"4 c #336E74",
"5 c #7B6651",
"6 c #4A6376",
"7 c #802C00",
"8 c #903500",
"9 c #9C3A00",
"0 c #B65F00",
"q c #BC5120",
"w c #89632E",
"e c #A26E25",
"r c #C36E25",
"t c #DB663A",
"y c #FF7F27",
"u c #319B36",
"i c #3FC745",
"p c #E3B119",
"a c #DB8630",
"s c #FFAA31",
"d c #FFF200",
"f c #808C5C",
"g c #A6925D",
"h c #C3A85C",
"j c #FFAA55",
"k c #FFBC6B",
"l c #FFCD78",
"z c #002E82",
"x c #005F98",
"c c #336E8C",
"v c #1D4EB4",
"b c #2463B3",
"n c #3A86B7",
"m c #5B8CA3",
"M c #66AAD5",
"N c #72B0D0",
"B c #5DB0E8",
"V c #80A88C",
"C c #89B0B3",
"Z c #DB9090",
"A c #C3C48C",
"S c #FFDC83",
"D c #E3C4A3",
"F c #FFEEB7",
"G c #838BD2",
"H c #9FB0D0",
"J c #90CDD5",
"K c #B6EED5",
"L c #8FCDE8",
"P c #A6CDE8",
"I c #DBEED5",
"U c #FFEED5",
"Y c #FAF8DC",
/* pixels */
"uuuuuuuuuuuuuuuuuuuuuuuuuuuuuuuuuuuuuuuuuuuuuuuuuuuuuuuuuuuuuuuuuuuuuuuuuuuuuuuuuuuuuuuuuuuuuuuuuuuu",
"uuuuuuuuuuuuuuuuuuuuuuuuuuuuuuuuuuuuuuuuuuuuuuuuuuuuuuuuuuuuuuuuuuuuuuuuuuuuuuuuuuuuuuuuuuuuuuuuuuuu",
"uuuuuuuuuuuuuuuuuuuuuuuuuuuuuuuuuuuuuuuuuuuuuuuuuuuuuuuuuuuuuuuuuuuuuuuuuuuuuuuuuuuuuuuuuuuuuuuuuuuu",
"uuuuuuuuuuuuuuuuuuuuuuuuuuuuuuuuuuuuuuuuuuuuuuuuuuuuuuuuuuuuuuuuuuuuuuuuuuuuuuuuuuuuuuuuuuuuuuuuuuuu",
"uuuuuuuuuuuuuuuuuuuuuuuuuuuuuuuuuuuuuuuuuuuuuuuuuuuuuuuuuuuuuuuuuuuuuuuuuuuuuuuuuuuuuuuuuuuuuuuuuuuu",
"uuuuuuuuuuuuuuuuuuuuuuuuuuuuuuuuuuuuuuuuuuuuuuuuuuuuuuuuuuuuuuuuuuuuuuuuuuuuuuuuuuuuuuuuuuuuuuuuuuuu",
"uuuuuuuuuuuuuuuuuuuuuuuuuuuuuuuuuuuuuuuuuuuuuuuuuuuuuuuuuuuuuuuuuuuuuuuuuuuuuuuuuuuuuuuuuuuuuuuuuuuu",
"uuuuuuuuuuuuuuuuuuuuuuuuuuuuuuuuuuuuuuuuuuuuuuuuuuuuuuuuuuuuuuuuuuuuuuuuuuuuuuuuuuuuuuuuuuuuuuuuuuuu",
"uuuuuuuuuuuuuuuuuuuuuuuuuuuuuuuuuuuuuuuuuuuuuuuuuuuuuuuuuuuuuuuuuuuuuuuuuuuuuuuuuuuuuuuuuuuuuuuuuuuu",
"uuuuuuuuuuuuuuuuuuuuuuuuuuuuuuuuuuuuuuuuuuuuuuuuuuuuuuuuuuuuuuuuuuuuuuuuuuuuuuuuuuuuuuuuuuuuuuuuuuuu",
"uuuuuuuuuuuuuuuuuuuuuuuuuuuuuuuuuuuuuuuuuuuuuuuuuuuuuuuuuuuuuuuuuuuuuuuuuuuuuuuuuuuuuuuuuuuuuuuuuuuu",
"uuuuuuuuuuuuuuuuuuuuuuuuuuuuuuuuuuuuuuuuuuuuuuuuuuuuuuuuuuuuuuuuuuuuuuuuuuuuuuuuuuuuuuuuuuuuuuuuuuuu",
"uuuuuuuuuuuuuuuuuuuuuuuuuuuuuuuuuuuuuuuuuuuuuuuuuuuuuuuuuuuuuuuuuuuuuuuuuuuuuuuuuuuuuuuuuuuuuuuuuuuu",
"uuuuuuuuuuuuuuuuuuuuuuuuuuuuuuuuuuuuuuuuuuuuuuuuuuuuuuuuuuuuuuuuuuuuuuuuuuuuuuuuuuuuuuuuuuuuuuuuuuuu",
"uuuuuuuuuuuuuuuuuuuuuuuuuuuuuuuuuuuuuuuuuuuuuuuuuuuuuuuuuuuuuuuuuuuuuuuuuuuuuuuuuuuuuuuuuuuuuuuuuuuu",
"uuuuuuuuuuuuuuuuuuuuuuuuuuuuuuuuuuuuuuuuuuuuuuuuuuuuuuuuuuuuuuuuuuuuuuuuuuuuuuuuuuuuuuuuuuuuuuuuuuuu",
"uuuuuuuuuuuuuuuuuuuuuuuuuuuuuuuuuuuuuuuuuuuuuuuuuuuuuuuuuuuuuuuuuuuuuuuuuuuuuuuuuuuuuuuuuuuuuuuuuuuu",
"uuuuuuuuuuuuuuuuuuuuuuuuuuuuuuuuuuuuuuuuuuuuuuuuuuuuuuuuuuuuuuuuuuuuuuuuuuuuuuuuuuuuuuuuuuuuuuuuuuuu",
"uuuuuuuuuuuuuuuuuuuuuuuuuuuuuuuuuuuuuuuuuuuuuuuuuuuuuuuuuuuuuuuuuuuuuuuuuuuuuuuuuuuuuuuuuuuuuuuuuuuu",
"uuuuuuuuuuuuuuuuuuuuuuuuuuuuuuuuuuuuuuuuuuuuuuuuuuuuuuuuuuuuuuuuuuuuuuuuuuuuuuuuuuuuuuuuuuuuuuuuuuuu",
"uuuuuuuuuuuuuuuuuuuuuuuuuuuuuuuuuuuuuuuuuuuuuuuuuuuuuuuuuuuuuuuuuuuuuuuuuuuuuuuuuuuuuuuuuuuuuuuuuuuu",
"uuuuuuuuuuuuuuuuuuuuuuuuuuuuuuuuuuuuuuuuuuuuuuuuuuuuuuuuuuuuuuuuuuuuuuuuuuuuuuuuuuuuuuuuuuuuuuuuuuuu",
"uuuuuuuuuuuuuuuuuuuuuuuuuuuuuuuuuuuuuuuuuuuuuuuuuuuuuuuuuuuuuuuuuuuuuuuuuuuuuuuuuuuuuuuuuuuuuuuuuuuu",
"uuuuuuuuuuuuuuuuuuuuuuuuuuuuuuuuuuuuuuuuuuuuuuuuuuuuuuuuuuuuuuuuuuuuuuuuuuuuuuuuuuuuuuuuuuuuuuuuuuuu",
"uuuuuuuuuuuuuuuuuuuuuiiuuuu@@@@@@@@@@@@@@@@@@@@@@@@@@@@@@@@@@@@@@@@@@@@@iuuuuuiiuuuuuuuuuuuuuuuuuuuu",
"uuuuuuuuuuuuuuuuuuuuuiiuuuu@@@@@@@@@@@@@@@@@@@@@@@@@@@@@@@@@@@@@@@@@@@@@iuuuuuiiuuuuuuuuuuuuuuuuuuuu",
"uuuuuuuuuuuuuuuuuuuuuiiuiii@@@@@@@@@@@@@@@@@@@@@@@@@@@@@@@@@@@@@@@@@@@@@iuiiiuiiuuuuuuuuuuuuuuuuuuuu",
"uuuuuuuuuuuuuuuuuuuuuiiuiii@@@@@@@@@@@@@@@@@@@@@@@@@@@@@@@@@@@@@@@@@@@@@iuiiiuiiuuuuuuuuuuuuuuuuuuuu",
"uuuuuuuuuuuuuuuuuuuuuiiu@@@ssssYYYYYYYYYYYkkkkSSSSkkkkkkkYYYYYYYYYYYYsss@@@@iuiiuuuuuuuuuuuuuuuuuuuu",
"uuuuuuuuuuuuuuuuuuuuuiiu@@@ssssYYYYYYYYYYYkkkkSSSSkkkkkkkYYYYYYYYYYYYsss@@@@iuiiuuuuuuuuuuuuuuuuuuuu",
"uuuuuuuuuuuuuuuuuuuuuuuu@@@ssssYYYYYYYYYYYkkkkSSSSkkkkkkkYYYYYYYYYYYYsss@@@@uuuuuuuuuuuuuuuuuuuuuuuu",
"uuuuuuuuuuuuuuuuuuuuuuuu@@@sssssssskkkksssYYYYkkkkssssYYYssssYYYYkkkkYYY@@@@uuuuuuuuuuuuuuuuuuuuuuuu",
"uuuuuuuuuuuuuuuuuuuuuuuu@@@sssssssskkkksssYYYYkkkkssssYYYssssYYYYkkkkYYY@@@@uuuuuuuuuuuuuuuuuuuuuuuu",
"uuuuuuuuuuuuuuuuuuuuuuuu@@@sssssssskkkksssYYYYkkkkssssYYYssssYYYYkkkkYYY@@@@uuuuuuuuuuuuuuuuuuuuuuuu",
"uuuuuuuuuuuuuuuuuuuuuuuu@@@sssssssskkkksssYYYYkkkkssssYYYssssYYYYkkkkYYY@@@@uuuuuuuuuuuuuuuuuuuuuuuu",
"uuuuuuuuuuuuuuuuuuuuuuuuuuu@@@@GGGGGGGGHHHHHHHHHHHHHHHPPPPPPPHHHHGGGG@@@uuuuuuuuuuuuuuuuuuuuuuuuuuuu",
"uuuuuuuuuuuuuuuuuuuuuuuuuuu@@@@GGGGGGGGHHHHHHHHHHHHHHHPPPPPPPHHHHGGGG@@@uuuuuuuuuuuuuuuuuuuuuuuuuuuu",
"uuuuuuuuuuuuuuuuuuuuuuuuuuu@@@@GGGGGGGGHHHHHHHHHHHHHHHPPPPPPPHHHHGGGG@@@uuuuuuuuuuuuuuuuuuuuuuuuuuuu",
"uuuuuuuuuuuuuuuuuuuuuuuu@@@ssssYYYYsssskkkssssYYYYkkkksssYYYYkkkksssskkk@@@@uuuuuuuuuuuuuuuuuuuuuuuu",
"uuuuuuuuuuuuuuuuuuuuuuuu@@@ssssYYYYsssskkkssssYYYYkkkksssYYYYkkkksssskkk@@@@uuuuuuuuuuuuuuuuuuuuuuuu",
"uuuuuuuuuuuuuuuuuuuuuuuu@@@ssssYYYYsssskkkssssYYYYkkkksssYYYYkkkksssskkk@@@@uuuuuuuuuuuuuuuuuuuuuuuu",
"uuuuuuuuuuuuuuuuuuuuuuuu@@@ssssYYYYsssskkkssssYYYYkkkksssYYYYkkkksssskkk@@@@uuuuuuuuuuuuuuuuuuuuuuuu",
"uuuuuuuuuuuuuuuuuuuu@@@@sssYYYYsssskkkkYYYssssYYYYSSSSYYYssssYYYYkkkkYYYkkkk@@@@uuuuuuuuuuuuuuuuuuuu",
"uuuuuuuuuuuuuuuuuuuu@@@@sssYYYYsssskkkkYYYssssYYYYSSSSYYYssssYYYYkkkkYYYkkkk@@@@uuuuuuuuuuuuuuuuuuuu",
"uuuuuuuuuuuuuuuuuuuu@@@@sssYYYYsssskkkkYYYssssYYYYSSSSYYYssssYYYYkkkkYYYkkkk@@@@uuuuuuuuuuuuuuuuuuuu",
"uuuuuuuuuuuuuuuuuuuuuuuu@@@yyyyYYYYkkkkyyyyyyyYYYYkkkkyyyyyyyyyyyYYYYkkk@@@@uuuuuuuuuuuuuuuuuuuuuuuu",
"uuuuuuuuuuuuuuuuuuuuuuuu@@@yyyyYYYYkkkkyyyyyyyYYYYkkkkyyyyyyyyyyyYYYYkkk@@@@uuuuuuuuuuuuuuuuuuuuuuuu",
"uuuuuuuuuuuuuuuuuuuuuuuu@@@yyyyYYYYkkkkyyyyyyyYYYYkkkkyyyyyyyyyyyYYYYkkk@@@@uuuuuuuuuuuuuuuuuuuuuuuu",
"uuuuuuuuuuuuuuuuuuuuuuuu@@@yyyyYYYYkkkkyyyyyyyYYYYkkkkyyyyyyyyyyyYYYYkkk@@@@uuuuuuuuuuuuuuuuuuuuuuuu",
"uuuuuuuuuuuuuuuuuuuuuuuu@@@ppppddddppppdddddddppppddddpppUUUUddddyyyyppp@@@@uuuuuuuuuuuuuuuuuuuuuuuu",
"uuuuuuuuuuuuuuuuuuuuuuuu@@@ppppddddppppdddddddppppddddpppUUUUddddyyyyppp@@@@uuuuuuuuuuuuuuuuuuuuuuuu",
"uuuuuuuuuuuuuuuuuuuuuuuu@@@ppppddddppppdddddddppppddddpppUUUUddddyyyyppp@@@@uuuuuuuuuuuuuuuuuuuuuuuu",
"uuuuuuuuuuuuuuuuuuuuuuuu@@@ppppGGGGGGGGGGGHHHHHHHHHHHHHHHPPPPPPPPHHHHyyy@@@@uuuuuuuuuuuuuuuuuuuuuuuu",
"uuuuuuuuuuuuuuuuuuuuuuuu@@@ppppGGGGGGGGGGGHHHHHHHHHHHHHHHPPPPPPPPHHHHyyy@@@@uuuuuuuuuuuuuuuuuuuuuuuu",
"uuuuuuuuuuuuuuuuuuuuuuuu@@@ppppGGGGGGGGGGGHHHHHHHHHHHHHHHPPPPPPPPHHHHyyy@@@@uuuuuuuuuuuuuuuuuuuuuuuu",
"uuuuuuuuuuuuuuuuuuuuuuuu@@@ppppGGGGGGGGGGGHHHHHHHHHHHHHHHPPPPPPPPHHHHyyy@@@@uuuuuuuuuuuuuuuuuuuuuuuu",
"uuuuuuuuuuuuuuuuuuuuuuuu@@@yyyyGGGGZZZZZZZDDDDDDDDDDDDDDDUUUUUUUUHHHHddd@@@@uuuuuuuuuuuuuuuuuuuuuuuu",
"uuuuuuuuuuuuuuuuuuuuuuuu@@@yyyyGG- O5X 3Zq   cDr >A7 cr   2% na ;NHHHddd@@@@uuuuuuuuuuuuuuuuuuuuuuuu",
"uuuuuuuuuuuuuuuuuuuuuuuu@@@yyyyGG- O5X 3t +fX mr +V7 cr +JU0 x0 xHHHHddd@@@@uuuuuuuuuuuuuuuuuuuuuuuu",
"uuuuuuuuuuuuuuuuuuuuuuuu@@@yyyyGG- O5X 3q +fX cr  47 cr +JUj ,= MHHHHyyy@@@@uuuuuuuuuuuuuuuuuuuuuuuu",
"uuuuuuuuuuuuuuuuuuuuuuuu@@@yyyyGG- O5X 39 +fX cr  :* cr +JUlo  ;KHHHHyyy@@@@uuuuuuuuuuuuuuuuuuuuuuuu",
"uuuuuuuuuuuuuuuuuuuuuuuu@@@yyyyGG- O5X 39 +fX cr     cr   nF8  1IHHHHyyy@@@@uuuuuuuuuuuuuuuuuuuuuuuu",
"uuuuuuuuuuuuuuuuuuuuuuuu@@@yyyyGG-     39 +fX cr     cr +JUUa  nUHHHHyyy@@@@uuuuuuuuuuuuuuuuuuuuuuuu",
"uuuuuuuuuuuuuuuuuuuuuuuu@@@ddddGG- O5X 39 +fX cr :*  cr +JUUj #JUHHHHddd@@@@uuuuuuuuuuuuuuuuuuuuuuuu",
"uuuuuuuuuuuuuuuuuuuuuuuu@@@ddddGG- O5X 3q +fX cr >e  cr +JUUj #JUHHHHddd@@@@uuuuuuuuuuuuuuuuuuuuuuuu",
"uuuuuuuuuuuuuuuuuuuuuuuu@@@ddddGG- O5X 3t +fX mr >hX cr +JUUj #JUHHHHddd@@@@uuuuuuuuuuuuuuuuuuuuuuuu",
"uuuuuuuuuuuuuuuuuuuuuuuu@@@ppppGG- #6. vG-   bHw <C& bw   zLg $BPHHHHyyy@@@@uuuuuuuuuuuuuuuuuuuuuuuu",
"uuuuuuuuuuuuuuuuuuuuuuuu@@@ppppGGGGGGGGGGGHHHHHHHHHHHHHHHPPPPPPPPHHHHyyy@@@@uuuuuuuuuuuuuuuuuuuuuuuu",
"uuuuuuuuuuuuuuuuuuuuuuuu@@@ppppGGGGGGGGGGGHHHHHHHHHHHHHHHPPPPPPPPHHHHyyy@@@@uuuuuuuuuuuuuuuuuuuuuuuu",
"uuuuuuuuuuuuuuuuuuuuuuuu@@@ppppGGGGGGGGGGGHHHHHHHHHHHHHHHPPPPPPPPHHHHyyy@@@@uuuuuuuuuuuuuuuuuuuuuuuu",
"uuuuuuuuuuuuuuuuuuuuuuuu@@@yyyyppppddddpppppppddddpppppppddddppppddddppp@@@@uuuuuuuuuuuuuuuuuuuuuuuu",
"uuuuuuuuuuuuuuuuuuuuuuuu@@@yyyyppppddddpppppppddddpppppppddddppppddddppp@@@@uuuuuuuuuuuuuuuuuuuuuuuu",
"uuuuuuuuuuuuuuuuuuuuuuuu@@@yyyyppppddddpppppppddddpppppppddddppppddddppp@@@@uuuuuuuuuuuuuuuuuuuuuuuu",
"uuuuuuuuuuuuuuuuuuuuuuuuuuu@@@@ppppyyyyyyyppppyyyyyyyypppyyyyyyyypppp@@@uuuuuuuuuuuuuuuuuuuuuuuuuuuu",
"uuuuuuuuuuuuuuuuuuuuuiiuuuu@@@@ppppyyyyyyyppppyyyyyyyypppyyyyyyyypppp@@@iuuuuuiiuuuuuuuuuuuuuuuuuuuu",
"uuuuuuuuuuuuuuuuuuuuuiiuuuu@@@@ppppyyyyyyyppppyyyyyyyypppyyyyyyyypppp@@@iuuuuuiiuuuuuuuuuuuuuuuuuuuu",
"uuuuuuuuuuuuuuuuuuuuuiiuiii@@@@ppppyyyyyyyppppyyyyyyyypppyyyyyyyypppp@@@iuiiiuiiuuuuuuuuuuuuuuuuuuuu",
"uuuuuuuuuuuuuuuuuuuuuiiuiiiuiiu@@@@@@@@@@@@@@@@@@@@@@@@@@@@@@@@@@@@@@uuiiuiiiuiiuuuuuuuuuuuuuuuuuuuu",
"uuuuuuuuuuuuuuuuuuuuuiiuiiiuiiu@@@@@@@@@@@@@@@@@@@@@@@@@@@@@@@@@@@@@@uuiiuiiiuiiuuuuuuuuuuuuuuuuuuuu",
"uuuuuuuuuuuuuuuuuuuuuiiuiiiuiiu@@@@@@@@@@@@@@@@@@@@@@@@@@@@@@@@@@@@@@uuiiuiiiuiiuuuuuuuuuuuuuuuuuuuu",
"uuuuuuuuuuuuuuuuuuuuuuuuuuuuuuuuuuuuuuuuuuuuuuuuuuuuuuuuuuuuuuuuuuuuuuuuuuuuuuuuuuuuuuuuuuuuuuuuuuuu",
"uuuuuuuuuuuuuuuuuuuuuuuuuuuuuuuuuuuuuuuuuuuuuuuuuuuuuuuuuuuuuuuuuuuuuuuuuuuuuuuuuuuuuuuuuuuuuuuuuuuu",
"uuuuuuuuuuuuuuuuuuuuuuuuuuuuuuuuuuuuuuuuuuuuuuuuuuuuuuuuuuuuuuuuuuuuuuuuuuuuuuuuuuuuuuuuuuuuuuuuuuuu",
"uuuuuuuuuuuuuuuuuuuuuuuuuuuuuuuuuuuuuuuuuuuuuuuuuuuuuuuuuuuuuuuuuuuuuuuuuuuuuuuuuuuuuuuuuuuuuuuuuuuu",
"uuuuuuuuuuuuuuuuuuuuuuuuuuuuuuuuuuuuuuuuuuuuuuuuuuuuuuuuuuuuuuuuuuuuuuuuuuuuuuuuuuuuuuuuuuuuuuuuuuuu",
"uuuuuuuuuuuuuuuuuuuuuuuuuuuuuuuuuuuuuuuuuuuuuuuuuuuuuuuuuuuuuuuuuuuuuuuuuuuuuuuuuuuuuuuuuuuuuuuuuuuu",
"uuuuuuuuuuuuuuuuuuuuuuuuuuuuuuuuuuuuuuuuuuuuuuuuuuuuuuuuuuuuuuuuuuuuuuuuuuuuuuuuuuuuuuuuuuuuuuuuuuuu",
"uuuuuuuuuuuuuuuuuuuuuuuuuuuuuuuuuuuuuuuuuuuuuuuuuuuuuuuuuuuuuuuuuuuuuuuuuuuuuuuuuuuuuuuuuuuuuuuuuuuu",
"uuuuuuuuuuuuuuuuuuuuuuuuuuuuuuuuuuuuuuuuuuuuuuuuuuuuuuuuuuuuuuuuuuuuuuuuuuuuuuuuuuuuuuuuuuuuuuuuuuuu",
"uuuuuuuuuuuuuuuuuuuuuuuuuuuuuuuuuuuuuuuuuuuuuuuuuuuuuuuuuuuuuuuuuuuuuuuuuuuuuuuuuuuuuuuuuuuuuuuuuuuu",
"uuuuuuuuuuuuuuuuuuuuuuuuuuuuuuuuuuuuuuuuuuuuuuuuuuuuuuuuuuuuuuuuuuuuuuuuuuuuuuuuuuuuuuuuuuuuuuuuuuuu",
"uuuuuuuuuuuuuuuuuuuuuuuuuuuuuuuuuuuuuuuuuuuuuuuuuuuuuuuuuuuuuuuuuuuuuuuuuuuuuuuuuuuuuuuuuuuuuuuuuuuu",
"uuuuuuuuuuuuuuuuuuuuuuuuuuuuuuuuuuuuuuuuuuuuuuuuuuuuuuuuuuuuuuuuuuuuuuuuuuuuuuuuuuuuuuuuuuuuuuuuuuuu",
"uuuuuuuuuuuuuuuuuuuuuuuuuuuuuuuuuuuuuuuuuuuuuuuuuuuuuuuuuuuuuuuuuuuuuuuuuuuuuuuuuuuuuuuuuuuuuuuuuuuu",
"uuuuuuuuuuuuuuuuuuuuuuuuuuuuuuuuuuuuuuuuuuuuuuuuuuuuuuuuuuuuuuuuuuuuuuuuuuuuuuuuuuuuuuuuuuuuuuuuuuuu",
"uuuuuuuuuuuuuuuuuuuuuuuuuuuuuuuuuuuuuuuuuuuuuuuuuuuuuuuuuuuuuuuuuuuuuuuuuuuuuuuuuuuuuuuuuuuuuuuuuuuu",
"uuuuuuuuuuuuuuuuuuuuuuuuuuuuuuuuuuuuuuuuuuuuuuuuuuuuuuuuuuuuuuuuuuuuuuuuuuuuuuuuuuuuuuuuuuuuuuuuuuuu",
"uuuuuuuuuuuuuuuuuuuuuuuuuuuuuuuuuuuuuuuuuuuuuuuuuuuuuuuuuuuuuuuuuuuuuuuuuuuuuuuuuuuuuuuuuuuuuuuuuuuu",
"uuuuuuuuuuuuuuuuuuuuuuuuuuuuuuuuuuuuuuuuuuuuuuuuuuuuuuuuuuuuuuuuuuuuuuuuuuuuuuuuuuuuuuuuuuuuuuuuuuuu",
"uuuuuuuuuuuuuuuuuuuuuuuuuuuuuuuuuuuuuuuuuuuuuuuuuuuuuuuuuuuuuuuuuuuuuuuuuuuuuuuuuuuuuuuuuuuuuuuuuuuu"
};
