/* XPM */
static char *ay89q_kmlww[] = {
/* columns rows colors chars-per-pixel */
"100 100 6 1 ",
"  c #232323",
". c #623418",
"X c #1E7B23",
"o c #7B411E",
"O c #B97A57",
"+ c #319B36",
/* pixels */
"++++++++++++++++++++++++++++++++++++++++++++++++++++++++++++++++++++++++++++++++++++++++++++++++++++",
"++++++++++++++++++++++++++++++++++++++++++++++++++++++++++++++++++++++++++++++++++++++++++++++++++++",
"++++++++++++++++++++++++++++++++++++++++++++++++++++++++++++++++++++++++++++++++++++++++++++++++++++",
"++++++++++++++++++++++++++++++++++++++++++++++++++++++++++++++++++++++++++++++++++++++++++++++++++++",
"++++++++++++++++++++++++++++++++++++++++++++++++++++++++++++++++++++++++++++++++++++++++++++++++++++",
"++++++++++++++++++++++++++++++++++++++++++++++++++++++++++++++++++++++++++++++++++++++++++++++++++++",
"++++++++++++++++++++++++++++++++++++++++++++++++++++++++++++++++++++++++++++++++++++++++++++++++++++",
"+++++++++                                                                                 ++++++++++",
"+++++++++                                                                                 ++++++++++",
"+++++++++                                                                                 ++++++++++",
"+++++++++                                                                                 ++++++++++",
"+++++++++                                                                                 ++++++++++",
"+++++++++     ++++++++++++++++++++++++++++++++++++++++++++++++++++++++++++++++++++++      ++++++++++",
"+++++++++     ++++++++++++++++++++++++++++++++++++++++++++++++++++++++++++++++++++++      ++++++++++",
"+++++++++     ++++++++++++++++++++++++++++++++++++++++++++++++++++++++++++++++++++++      ++++++++++",
"+++++++++     ++++++++++++++++++++++++++++++++++++++++++++++++++++++++++++++++++++++      ++++++++++",
"+++++++++     ++++++++++++++++++++++++++++++++++++++++++++++++++++++++++++++++++++++      ++++++++++",
"+++++++++     ++++++++++++++++++++++++++++++++++++++++++++++++++++++++++++++++++++++      ++++++++++",
"+++++++++     ++++++++++++++++++++++++++++++++++++++++++++++++++++++++++++++++++++++      ++++++++++",
"+++++++++     ++++++++++++++++++++++++++++++++++++++++++++++++++++++++++++++++++++++      ++++++++++",
"+++++++++     ++++++++++++++++++++++++++++++++++++++++++++++++++++++++++++++++++++++      ++++++++++",
"+++++++++     ++++++++++++++++++++++++++++++++++++++++++++++++++++++++++++++++++++++      ++++++++++",
"+++++++++     ++++++++++++++++++++++++++++++++++++++++++++++++++++++++++++++++++++++      ++++++++++",
"+++++++++     ++++++++++++++++++++++++++++++++++++++++++++++++++++++++++++++++++++++      ++++++++++",
"+++++++++     ++++++++++++++++++++++++++++++++++++++++++++++++++++++++++++++++++++++      ++++++++++",
"+++++++++     ++++++++++++++++++++++++++++++++++++++++++++++++++++++++++++++++++++++      ++++++++++",
"+++++++++     ++++++++++++++++++++++++++++++++++++++++++++++++++++++++++++++++++++++      ++++++++++",
"+++++++++     ++++++++++++++++++++++++++++++++++++++++++++++++++++++++++++++++++++++      ++++++++++",
"+++++++++     ++++++++++++++++++++++++++++++++++++++++++++++++++++++++++++++++++++++      ++++++++++",
"+++++++++     ++++++++++++++++++++++++++++++++++++++++++++++++++++++++++++++++++++++      ++++++++++",
"+++++++++     ++++++++++++++++++++++++++++++++++++++++++++++++++++++++++++++++++++++      ++++++++++",
"+++++++++     ++++++++++++++++++++++++++++++++++++++++++++++++++++++++++++++++++++++      ++++++++++",
"+++++++++     ++++++++++++++++++++++++++++++++++++++++++++++++++++++++++++++++++++++      ++++++++++",
"+++++++++     ++++++++++++++++++++++++++++++++++++++++++++++++++++++++++++++++++++++      ++++++++++",
"+++++++++     ++++++++++++++++++++++++++++++++++++++++++++++++++++++++++++++++++++++      ++++++++++",
"+++++++++     ++++++++++++++++++++++++++++++++++++++++++++++++++++++++++++++++++++++      ++++++++++",
"+++++++++     ++++++++++++++++++++++++++++++++++++++++++++++++++++++++++++++++++++++      ++++++++++",
"+++++++++     ++++++++++++++++++++++++++++++++++++++++++++++++++++++++++++++++++++++      ++++++++++",
"+++++++++     ++++++++++++++++++++++++++++++++++++++++++++++++++++++++++++++++++++++      ++++++++++",
"+++++++++     ++++++++++++++++++++++++++++++++++++++++++++++++++++++++++++++++++++++      ++++++++++",
"+++++++++     ++++++++++++++++++++++++++++++++++++++++++++++++++++++++++++++++++++++      ++++++++++",
"+++++++++     ++++++++++++++++++++++++++++++++++++++++++++++++++++++++++++++++++++++      ++++++++++",
"+++++++++     ++++++++++++++++++++++++++++++++++++++++++++++++++++++++++++++++++++++      ++++++++++",
"+++++++++     ++++++++++++++++++++++++++++++++++++++++++++++++++++++++++++++++++++++      ++++++++++",
"+++++++++     ++++++++++++++++++++++++++++++++++++++++++++++++++++++++++++++++++++++      ++++++++++",
"+++++++++     ++++++++++++++++++++++++++++++++++++++++++++++++++++++++++++++++++++++      ++++++++++",
"+++++++++     ++++++++++++++++++++++++++++++++++++++++++++++++++++++++++++++++++++++      ++++++++++",
"+++++++++     ++++++++++++++++++++++++++++++++++++++++++++++++++++++++++++++++++++++      ++++++++++",
"+++++++++     ++++++++++++++++++++++++++++++++++++++++++++++++++++++++++++++++++++++      ++++++++++",
"+++++++++     ++++++++++++++++++++++++++++++++++++++++++++++++++++++++++++++++++++++      ++++++++++",
"+++++++++     ++++++++++++++++++++++++++++++++++++++++++++++++++++++++++++++++++++++      ++++++++++",
"+++++++++     ++++++++++++++++++++++++++++++++++++++++++++++++++++++++++++++++++++++      ++++++++++",
"+++++++++     XXXXXXXXXXXXXXXXXXXXXXXXXXXXXXXXXXXXXXXXXXXXXXXXXXXXXXXXXXXXXXXXXXXXXX      ++++++++++",
"+++++++++     XXXXXXXXXXXXXXXXXXXXXXXXXXXXXXXXXXXXXXXXXXXXXXXXXXXXXXXXXXXXXXXXXXXXXX      ++++++++++",
"+++++++++     XXXXXXXXXXXXXXXXXXXXXXXXXXXXXXXXXXXXXXXXXXXXXXXXXXXXXXXXXXXXXXXXXXXXXX      ++++++++++",
"+++++++++     XXXXXXXXXXXXXXXXXXXXXXXXXXXXXXXXXXXXXXXXXXXXXXXXXXXXXXXXXXXXXXXXXXXXXX      ++++++++++",
"+++++++++     XXXXXXXXXXXXXXXXXXXXXXXXXXXXXXXXXXXXXXXXXXXXXXXXXXXXXXXXXXXXXXXXXXXXXX      ++++++++++",
"+++++++++     XXXXXXXXXXXXXXXXXXXXXXXXXXXXXXXXXXXXXXXXXXXXXXXXXXXXXXXXXXXXXXXXXXXXXX      ++++++++++",
"+++++++++     XXXXXXXXXXXXXXXXXXXXXXXXXXXXXXXXXXXXXXXXXXXXXXXXXXXXXXXXXXXXXXXXXXXXXX      ++++++++++",
"+++++++++     XXXXXXXXXXXXXXXXXXXXXXXXXXXXXXXXXXXXXXXXXXXXXXXXXXXXXXXXXXXXXXXXXXXXXX      ++++++++++",
"+++++++++     XXXXXXXXXXXXXXXXXXXXXXXXXXXXXXXXXXXXXXXXXXXXXXXXXXXXXXXXXXXXXXXXXXXXXX      ++++++++++",
"+++++++++     XXXXXXXXXXXXXXXXXXXXXXXXXXXXXXXXXXXXXXXXXXXXXXXXXXXXXXXXXXXXXXXXXXXXXX      ++++++++++",
"+++++++++     XXXXXXXXXXXXXXXXXXXXXXXXXXXXXXXXXXXXXXXXXXXXXXXXXXXXXXXXXXXXXXXXXXXXXX      ++++++++++",
"+++++++++     XXXXXXXXXXXXXXXXXXXXXXXXXXXXXXXXXXXXXXXXXXXXXXXXXXXXXXXXXXXXXXXXXXXXXX      ++++++++++",
"+++++++++     XXXXXXXXXXXXXXXXXXXXXXXXXXXXXXXXXXXXXXXXXXXXXXXXXXXXXXXXXXXXXXXXXXXXXX      ++++++++++",
"+++++++++     XXXXXXXXXXXXXXXXXXXXXXXXXXXXXXXXXXXXXXXXXXXXXXXXXXXXXXXXXXXXXXXXXXXXXX      ++++++++++",
"+++++++++     XXXXXXXXXXXXXXXXXXXXXXXXXXXXXXXXXXXXXXXXXXXXXXXXXXXXXXXXXXXXXXXXXXXXXX      ++++++++++",
"+++++++++     XXXXXXXXXXXXXXXXXXXXXXXXXXXXXXXXXXXXXXXXXXXXXXXXXXXXXXXXXXXXXXXXXXXXXX      ++++++++++",
"+++++++++     XXXXXXXXXXXXXXXXXXXXXXXXXXXXXXXXXXXXXXXXXXXXXXXXXXXXXXXXXXXXXXXXXXXXXX      ++++++++++",
"+++++++++     XXXXXXXXXXXXXXXXXXXXXXXXXXXXXXXXXXXXXXXXXXXXXXXXXXXXXXXXXXXXXXXXXXXXXX      ++++++++++",
"+++++++++     XXXXXXXXXXXXXXXXXXXXXXXXXXXXXXXXXXXXXXXXXXXXXXXXXXXXXXXXXXXXXXXXXXXXXX      ++++++++++",
"+++++++++     XXXXXXXXXXXXXXXXXXXXXXXXXXXXXXXXXXXXXXXXXXXXXXXXXXXXXXXXXXXXXXXXXXXXXX      ++++++++++",
"+++++++++                            ........................                             ++++++++++",
"+++++++++                            ........................                             ++++++++++",
"+++++++++                            ........................                             ++++++++++",
"+++++++++                            ........................                             ++++++++++",
"++++++++++++++++++++++++++++++++     oooooooooooooooooooooooo      +++++++++++++++++++++++++++++++++",
"++++++++++++++++++++++++++++++++     oooooooooooooooooooooooo      +++++++++++++++++++++++++++++++++",
"++++++++++++++++++++++++++++++++     oooooooooooooooooooooooo      +++++++++++++++++++++++++++++++++",
"++++++++++++++++++++++++++++++++     oooooooooooooooooooooooo      +++++++++++++++++++++++++++++++++",
"+++++++++++++++++++++++++OOOOOOO     oooooooooooooooooooooooo      OOOOOO+++++++++++++++++++++++++++",
"+++++++++++++++++++++++++OOOOOOO     oooooooooooooooooooooooo      OOOOOO+++++++++++++++++++++++++++",
"+++++++++++++++++++++++++OOOOOOO     oooooooooooooooooooooooo      OOOOOO+++++++++++++++++++++++++++",
"+++++++++++++++++++++++++OOOOOOO     oooooooooooooooooooooooo      OOOOOO+++++++++++++++++++++++++++",
"+++++++++++++++++++++++++OOOOOOO     oooooooooooooooooooooooo      OOOOOO+++++++++++++++++++++++++++",
"+++++++++++++++++++++++++OOOOOOO     oooooooooooooooooooooooo      OOOOOO+++++++++++++++++++++++++++",
"+++++++++++++++++++++++++OOOOOOO     oooooooooooooooooooooooo      OOOOOO+++++++++++++++++++++++++++",
"+++++++++++++++++++++++++OOOOOOO     oooooooooooooooooooooooo      OOOOOO+++++++++++++++++++++++++++",
"+++++++++++++++++++++++++OOOOOOO     oooooooooooooooooooooooo      OOOOOO+++++++++++++++++++++++++++",
"+++++++++++++++++++++++++OOOOOOO     oooooooooooooooooooooooo      OOOOOO+++++++++++++++++++++++++++",
"+++++++++++++++++++++++++OOOOOOO     oooooooooooooooooooooooo      OOOOOO+++++++++++++++++++++++++++",
"+++++++++++++++++++++++++OOOOOOOOOOOOOOOOOOOOOOOOOOOOOOOOOOOOOOOOOOOOOOOO+++++++++++++++++++++++++++",
"+++++++++++++++++++++++++OOOOOOOOOOOOOOOOOOOOOOOOOOOOOOOOOOOOOOOOOOOOOOOO+++++++++++++++++++++++++++",
"+++++++++++++++++++++++++OOOOOOOOOOOOOOOOOOOOOOOOOOOOOOOOOOOOOOOOOOOOOOOO+++++++++++++++++++++++++++",
"+++++++++++++++++++++++++OOOOOOOOOOOOOOOOOOOOOOOOOOOOOOOOOOOOOOOOOOOOOOOO+++++++++++++++++++++++++++",
"+++++++++++++++++++++++++OOOOOOOOOOOOOOOOOOOOOOOOOOOOOOOOOOOOOOOOOOOOOOOO+++++++++++++++++++++++++++",
"++++++++++++++++++++++++++++++++++++++++++++++++++++++++++++++++++++++++++++++++++++++++++++++++++++",
"++++++++++++++++++++++++++++++++++++++++++++++++++++++++++++++++++++++++++++++++++++++++++++++++++++",
"++++++++++++++++++++++++++++++++++++++++++++++++++++++++++++++++++++++++++++++++++++++++++++++++++++",
"++++++++++++++++++++++++++++++++++++++++++++++++++++++++++++++++++++++++++++++++++++++++++++++++++++"
};
