/* XPM */
static char *azm74_twvpy[] = {
/* columns rows colors chars-per-pixel */
"100 100 6 1 ",
"  c gray10",
". c #4E2713",
"X c #673117",
"o c #1B6B1B",
"O c #955D2B",
"+ c #2A8D29",
/* pixels */
"++++++++++++++++++++++++++++++++++++++++++++++++++++++++++++++++++++++++++++++++++++++++++++++++++++",
"++++++++++++++++++++++++++++++++++++++++++++++++++++++++++++++++++++++++++++++++++++++++++++++++++++",
"++++++++++++++++++++++++++++++++++++++++++++++++++++++++++++++++++++++++++++++++++++++++++++++++++++",
"++++++++++++++++++++++++++++++++++++++++++++++++++++++++++++++++++++++++++++++++++++++++++++++++++++",
"++++++++++++++++++++++++++++++++++++++++++++++++++++++++++++++++++++++++++++++++++++++++++++++++++++",
"++++++++++                                                                                ++++++++++",
"++++++++++                                                                                ++++++++++",
"++++++++++                                                                                ++++++++++",
"++++++++++                                                                                ++++++++++",
"++++++++++                                                                                ++++++++++",
"++++++++++      +++++++++++++++++++++++++++++++++++++++++++++++++++++++++++++++++++++     ++++++++++",
"++++++++++      +++++++++++++++++++++++++++++++++++++++++++++++++++++++++++++++++++++     ++++++++++",
"++++++++++      +++++++++++++++++++++++++++++++++++++++++++++++++++++++++++++++++++++     ++++++++++",
"++++++++++      +++++++++++++++++++++++++++++++++++++++++++++++++++++++++++++++++++++     ++++++++++",
"++++++++++      +++++++++++++++++++++++++++++++++++++++++++++++++++++++++++++++++++++     ++++++++++",
"++++++++++      +++++++++++++++++++++++++++++++++++++++++++++++++++++++++++++++++++++     ++++++++++",
"++++++++++      +++++++++++++++++++++++++++++++++++++++++++++++++++++++++++++++++++++     ++++++++++",
"++++++++++      +++++++++++++++++++++++++++++++++++++++++++++++++++++++++++++++++++++     ++++++++++",
"++++++++++      +++++++++++++++++++++++++++++++++++++++++++++++++++++++++++++++++++++     ++++++++++",
"++++++++++      +++++++++++++++++++++++++++++++++++++++++++++++++++++++++++++++++++++     ++++++++++",
"++++++++++      +++++++++++++++++++++++++++++++++++++++++++++++++++++++++++++++++++++     ++++++++++",
"++++++++++      +++++++++++++++++++++++++++++++++++++++++++++++++++++++++++++++++++++     ++++++++++",
"++++++++++      +++++++++++++++++++++++++++++++++++++++++++++++++++++++++++++++++++++     ++++++++++",
"++++++++++      +++++++++++++++++++++++++++++++++++++++++++++++++++++++++++++++++++++     ++++++++++",
"++++++++++      +++++++++++++++++++++++++++++++++++++++++++++++++++++++++++++++++++++     ++++++++++",
"++++++++++      +++++++++++++++++++++++++++++++++++++++++++++++++++++++++++++++++++++     ++++++++++",
"++++++++++      +++++++++++++++++++++++++++++++++++++++++++++++++++++++++++++++++++++     ++++++++++",
"++++++++++      +++++++++++++++++++++++++++++++++++++++++++++++++++++++++++++++++++++     ++++++++++",
"++++++++++      +++++++++++++++++++++++++++++++++++++++++++++++++++++++++++++++++++++     ++++++++++",
"++++++++++      +++++++++++++++++++++++++++++++++++++++++++++++++++++++++++++++++++++     ++++++++++",
"++++++++++      +++++++++++++++++++++++++++++++++++++++++++++++++++++++++++++++++++++     ++++++++++",
"++++++++++      +++++++++++++++++++++++++++++++++++++++++++++++++++++++++++++++++++++     ++++++++++",
"++++++++++      +++++++++++++++++++++++++++++++++++++++++++++++++++++++++++++++++++++     ++++++++++",
"++++++++++      +++++++++++++++++++++++++++++++++++++++++++++++++++++++++++++++++++++     ++++++++++",
"++++++++++      +++++++++++++++++++++++++++++++++++++++++++++++++++++++++++++++++++++     ++++++++++",
"++++++++++      +++++++++++++++++++++++++++++++++++++++++++++++++++++++++++++++++++++     ++++++++++",
"++++++++++      +++++++++++++++++++++++++++++++++++++++++++++++++++++++++++++++++++++     ++++++++++",
"++++++++++      +++++++++++++++++++++++++++++++++++++++++++++++++++++++++++++++++++++     ++++++++++",
"++++++++++      +++++++++++++++++++++++++++++++++++++++++++++++++++++++++++++++++++++     ++++++++++",
"++++++++++      +++++++++++++++++++++++++++++++++++++++++++++++++++++++++++++++++++++     ++++++++++",
"++++++++++      +++++++++++++++++++++++++++++++++++++++++++++++++++++++++++++++++++++     ++++++++++",
"++++++++++      +++++++++++++++++++++++++++++++++++++++++++++++++++++++++++++++++++++     ++++++++++",
"++++++++++      +++++++++++++++++++++++++++++++++++++++++++++++++++++++++++++++++++++     ++++++++++",
"++++++++++      +++++++++++++++++++++++++++++++++++++++++++++++++++++++++++++++++++++     ++++++++++",
"++++++++++      +++++++++++++++++++++++++++++++++++++++++++++++++++++++++++++++++++++     ++++++++++",
"++++++++++      +++++++++++++++++++++++++++++++++++++++++++++++++++++++++++++++++++++     ++++++++++",
"++++++++++      +++++++++++++++++++++++++++++++++++++++++++++++++++++++++++++++++++++     ++++++++++",
"++++++++++      +++++++++++++++++++++++++++++++++++++++++++++++++++++++++++++++++++++     ++++++++++",
"++++++++++      +++++++++++++++++++++++++++++++++++++++++++++++++++++++++++++++++++++     ++++++++++",
"++++++++++      +++++++++++++++++++++++++++++++++++++++++++++++++++++++++++++++++++++     ++++++++++",
"++++++++++      +++++++++++++++++++++++++++++++++++++++++++++++++++++++++++++++++++++     ++++++++++",
"++++++++++      ooooooooooooooooooooooooooooooooooooooooooooooooooooooooooooooooooooo     ++++++++++",
"++++++++++      ooooooooooooooooooooooooooooooooooooooooooooooooooooooooooooooooooooo     ++++++++++",
"++++++++++      ooooooooooooooooooooooooooooooooooooooooooooooooooooooooooooooooooooo     ++++++++++",
"++++++++++      ooooooooooooooooooooooooooooooooooooooooooooooooooooooooooooooooooooo     ++++++++++",
"++++++++++      ooooooooooooooooooooooooooooooooooooooooooooooooooooooooooooooooooooo     ++++++++++",
"++++++++++      ooooooooooooooooooooooooooooooooooooooooooooooooooooooooooooooooooooo     ++++++++++",
"++++++++++      ooooooooooooooooooooooooooooooooooooooooooooooooooooooooooooooooooooo     ++++++++++",
"++++++++++      ooooooooooooooooooooooooooooooooooooooooooooooooooooooooooooooooooooo     ++++++++++",
"++++++++++      ooooooooooooooooooooooooooooooooooooooooooooooooooooooooooooooooooooo     ++++++++++",
"++++++++++      ooooooooooooooooooooooooooooooooooooooooooooooooooooooooooooooooooooo     ++++++++++",
"++++++++++      ooooooooooooooooooooooooooooooooooooooooooooooooooooooooooooooooooooo     ++++++++++",
"++++++++++      ooooooooooooooooooooooooooooooooooooooooooooooooooooooooooooooooooooo     ++++++++++",
"++++++++++      ooooooooooooooooooooooooooooooooooooooooooooooooooooooooooooooooooooo     ++++++++++",
"++++++++++      ooooooooooooooooooooooooooooooooooooooooooooooooooooooooooooooooooooo     ++++++++++",
"++++++++++      ooooooooooooooooooooooooooooooooooooooooooooooooooooooooooooooooooooo     ++++++++++",
"++++++++++      ooooooooooooooooooooooooooooooooooooooooooooooooooooooooooooooooooooo     ++++++++++",
"++++++++++      ooooooooooooooooooooooooooooooooooooooooooooooooooooooooooooooooooooo     ++++++++++",
"++++++++++      ooooooooooooooooooooooooooooooooooooooooooooooooooooooooooooooooooooo     ++++++++++",
"++++++++++      ooooooooooooooooooooooooooooooooooooooooooooooooooooooooooooooooooooo     ++++++++++",
"++++++++++      ooooooooooooooooooooooooooooooooooooooooooooooooooooooooooooooooooooo     ++++++++++",
"++++++++++                             .......................                            ++++++++++",
"++++++++++                             .......................                            ++++++++++",
"++++++++++                             .......................                            ++++++++++",
"++++++++++                             .......................                            ++++++++++",
"++++++++++                             .......................                            ++++++++++",
"++++++++++                             .......................                            ++++++++++",
"+++++++++++++++++++++++++++++++++      XXXXXXXXXXXXXXXXXXXXXXX     +++++++++++++++++++++++++++++++++",
"+++++++++++++++++++++++++++++++++      XXXXXXXXXXXXXXXXXXXXXXX     +++++++++++++++++++++++++++++++++",
"+++++++++++++++++++++++++++++++++      XXXXXXXXXXXXXXXXXXXXXXX     +++++++++++++++++++++++++++++++++",
"+++++++++++++++++++++++++++++++++      XXXXXXXXXXXXXXXXXXXXXXX     +++++++++++++++++++++++++++++++++",
"+++++++++++++++++++++++++++++++++      XXXXXXXXXXXXXXXXXXXXXXX     +++++++++++++++++++++++++++++++++",
"+++++++++++++++++++++++++++OOOOOO      XXXXXXXXXXXXXXXXXXXXXXX     OOOOOO+++++++++++++++++++++++++++",
"+++++++++++++++++++++++++++OOOOOO      XXXXXXXXXXXXXXXXXXXXXXX     OOOOOO+++++++++++++++++++++++++++",
"+++++++++++++++++++++++++++OOOOOO      XXXXXXXXXXXXXXXXXXXXXXX     OOOOOO+++++++++++++++++++++++++++",
"+++++++++++++++++++++++++++OOOOOO      XXXXXXXXXXXXXXXXXXXXXXX     OOOOOO+++++++++++++++++++++++++++",
"+++++++++++++++++++++++++++OOOOOO      XXXXXXXXXXXXXXXXXXXXXXX     OOOOOO+++++++++++++++++++++++++++",
"+++++++++++++++++++++++++++OOOOOO      XXXXXXXXXXXXXXXXXXXXXXX     OOOOOO+++++++++++++++++++++++++++",
"+++++++++++++++++++++++++++OOOOOO      XXXXXXXXXXXXXXXXXXXXXXX     OOOOOO+++++++++++++++++++++++++++",
"+++++++++++++++++++++++++++OOOOOO      XXXXXXXXXXXXXXXXXXXXXXX     OOOOOO+++++++++++++++++++++++++++",
"+++++++++++++++++++++++++++OOOOOO      XXXXXXXXXXXXXXXXXXXXXXX     OOOOOO+++++++++++++++++++++++++++",
"+++++++++++++++++++++++++++OOOOOO      XXXXXXXXXXXXXXXXXXXXXXX     OOOOOO+++++++++++++++++++++++++++",
"+++++++++++++++++++++++++++OOOOOOOOOOOOOOOOOOOOOOOOOOOOOOOOOOOOOOOOOOOOOO+++++++++++++++++++++++++++",
"+++++++++++++++++++++++++++OOOOOOOOOOOOOOOOOOOOOOOOOOOOOOOOOOOOOOOOOOOOOO+++++++++++++++++++++++++++",
"+++++++++++++++++++++++++++OOOOOOOOOOOOOOOOOOOOOOOOOOOOOOOOOOOOOOOOOOOOOO+++++++++++++++++++++++++++",
"+++++++++++++++++++++++++++OOOOOOOOOOOOOOOOOOOOOOOOOOOOOOOOOOOOOOOOOOOOOO+++++++++++++++++++++++++++",
"+++++++++++++++++++++++++++OOOOOOOOOOOOOOOOOOOOOOOOOOOOOOOOOOOOOOOOOOOOOO+++++++++++++++++++++++++++",
"++++++++++++++++++++++++++++++++++++++++++++++++++++++++++++++++++++++++++++++++++++++++++++++++++++",
"++++++++++++++++++++++++++++++++++++++++++++++++++++++++++++++++++++++++++++++++++++++++++++++++++++",
"++++++++++++++++++++++++++++++++++++++++++++++++++++++++++++++++++++++++++++++++++++++++++++++++++++"
};
